<svg width="45" height="30" viewBox="0 0 45 30" fill="none" xmlns="http://www.w3.org/2000/svg">
<path d="M40.7812 0.46875H4.21875C2.14768 0.46875 0.46875 2.14768 0.46875 4.21875V25.7812C0.46875 27.8523 2.14768 29.5312 4.21875 29.5312H40.7812C42.8523 29.5312 44.5312 27.8523 44.5312 25.7812V4.21875C44.5312 2.14768 42.8523 0.46875 40.7812 0.46875Z" fill="white" stroke="black" stroke-opacity="0.2" stroke-width="0.5"/>
<path d="M5.227 11.0896C4.24611 10.5516 3.12664 10.1189 1.875 9.81861L1.9275 9.58478H7.05934C7.75493 9.60916 8.31936 9.81845 8.50302 10.5576L9.61831 15.8749L9.95997 17.4764L13.0837 9.58478H16.4565L11.4429 21.1454H8.06994L5.227 11.0896ZM18.9375 21.1576H15.7478L17.7428 9.58478H20.9323L18.9375 21.1576ZM30.5002 9.8677L30.0664 12.3667L29.7779 12.2438C29.2008 12.0098 28.4389 11.776 27.402 11.8007C26.1426 11.8007 25.5779 12.3052 25.5648 12.7977C25.5648 13.3395 26.248 13.6966 27.3636 14.2261C29.2013 15.051 30.0537 16.0604 30.041 17.3779C30.0151 19.7787 27.8363 21.3301 24.4895 21.3301C23.0585 21.3177 21.6802 21.0339 20.9321 20.7142L21.3785 18.1163L21.7985 18.3012C22.8354 18.7326 23.5178 18.9168 24.7912 18.9168C25.7096 18.9168 26.6942 18.5595 26.7067 17.7842C26.7067 17.2793 26.2872 16.9097 25.0532 16.3434C23.8459 15.7891 22.2316 14.8659 22.2577 13.2037C22.2713 10.9508 24.4895 9.375 27.6394 9.375C28.8732 9.375 29.8711 9.63354 30.5002 9.8677ZM34.7395 17.0578H37.3907C37.2596 16.4792 36.6556 13.709 36.6556 13.709L36.4326 12.7118C36.2751 13.1427 35.9997 13.8445 36.013 13.8198C36.013 13.8198 35.0022 16.3929 34.7395 17.0578ZM38.6768 9.58478L41.25 21.1575H38.2967C38.2967 21.1575 38.0077 19.8278 37.9161 19.4215H33.8209C33.7024 19.7291 33.1514 21.1575 33.1514 21.1575H29.8046L34.5424 10.545C34.8707 9.7939 35.4487 9.58478 36.2096 9.58478H38.6768Z" fill="#171E6C"/>
</svg>
