<svg width="24" height="24" viewBox="0 0 24 24" fill="none" xmlns="http://www.w3.org/2000/svg">
<path d="M12.1634 9.95667C11.0647 9.95667 10.1685 10.8946 10.1685 12.0499C10.1685 13.2022 11.0617 14.1432 12.1634 14.1432C13.2622 14.1432 14.1584 13.2052 14.1584 12.0499C14.1584 10.8976 13.2622 9.95667 12.1634 9.95667Z" fill="black"/>
<path d="M12.1634 15.3581C10.3947 15.3581 8.9535 13.8753 8.9535 12.05C8.9535 10.2247 10.3947 8.74189 12.1634 8.74189C13.932 8.74189 15.3732 10.2247 15.3732 12.05C15.3732 13.8753 13.932 15.3581 12.1634 15.3581ZM19.4972 11.7284C17.5975 8.67936 15.0367 7 12.2944 7C9.552 7 6.99127 8.67936 5.09156 11.7284C4.96948 11.9249 4.96948 12.1751 5.09156 12.3716C6.99127 15.4206 9.552 17.1 12.2944 17.1C15.0367 17.1 17.5945 15.4206 19.4972 12.3716C19.6193 12.1751 19.6193 11.9249 19.4972 11.7284Z" fill="black"/>
<circle cx="12" cy="12" r="11.5" stroke="black"/>
</svg>
