<svg width="80" height="74" viewBox="0 0 80 74" fill="none" xmlns="http://www.w3.org/2000/svg">
<g clip-path="url(#clip0)">
<path d="M43.9239 54.9099C45.1403 54.8173 46.2589 55.5128 46.8294 56.598C47.3971 57.8196 47.041 59.3355 45.9707 60.1704C44.9837 60.8991 43.6612 60.906 42.6516 60.1598C41.6678 59.4692 41.2092 58.1969 41.5308 57.0347C41.7176 55.8676 42.7075 55.0024 43.9239 54.9099ZM43.3871 56.037C42.4604 56.4676 42.004 57.625 42.4684 58.6245C42.9071 59.5685 44.0573 60.0468 45.0385 59.5908C46.0198 59.1348 46.3672 58.0281 45.9572 57.0033C45.4383 56.0291 44.3139 55.6064 43.3871 56.037Z" fill="black"/>
<path d="M64.5296 45.3347C65.746 45.2421 66.8646 45.9376 67.4352 47.0228C68.0028 48.2444 67.6467 49.7603 66.5764 50.5952C65.5894 51.324 64.2669 51.3308 63.2573 50.5846C62.2735 49.894 61.8149 48.6217 62.1365 47.4595C62.3778 46.2671 63.3678 45.4019 64.5296 45.3347ZM64.0474 46.4365C63.1206 46.8671 62.6642 48.0245 63.1286 49.024C63.5673 49.968 64.7175 50.4462 65.6987 49.9903C66.68 49.5343 67.0274 48.4276 66.6175 47.4028C66.0985 46.4286 64.9741 46.0059 64.0474 46.4365Z" fill="black"/>
<path d="M69.8933 27.92C70.2487 28.9702 70.5755 30.1012 70.7128 31.2527C70.8044 32.0204 70.8386 32.9497 70.365 33.6424C70.058 34.1227 69.5415 34.2951 69.1054 34.4978C68.5058 34.7764 67.9062 35.0551 67.3065 35.3337C67.252 35.3591 67.143 35.4097 67.0885 35.435C67.034 35.4604 66.9249 35.511 66.8159 35.5617C65.3986 36.2203 63.9812 36.8789 62.5094 37.5629C62.4549 37.5882 62.3458 37.6389 62.2913 37.6642C62.0188 37.7909 61.7462 37.9175 61.5282 38.0188C59.7837 38.8294 58.0938 39.6147 56.3494 40.4253C56.2662 40.5315 56.1027 40.6075 55.9678 40.6026C55.3137 40.9066 54.605 41.2359 53.9509 41.5399C52.5335 42.1985 51.1707 42.8318 49.7534 43.4904C49.6702 43.5966 49.5066 43.6726 49.3718 43.6677C48.1725 44.225 47.0277 44.7569 45.8285 45.3142C45.1198 45.6435 44.3566 45.9982 43.648 46.3275C43.536 46.5145 43.2635 46.6412 43.0483 46.6061C41.522 47.3154 39.9956 48.0247 38.4692 48.7339C36.6703 49.5699 34.8714 50.4058 33.0725 51.2417C32.4728 51.5204 31.8732 51.799 31.2735 52.0776C31.2993 52.1332 31.3797 52.1634 31.4055 52.2189C31.6951 52.5569 32.1483 52.819 32.4954 52.9953C32.7363 53.0859 32.8166 53.1161 33.0863 53.1258C33.2211 53.1307 33.3559 53.1355 33.4908 53.1404C33.4908 53.1404 33.5453 53.1151 33.5711 53.1706C33.5711 53.1706 33.5711 53.1706 33.6256 53.1453C33.8694 53.0995 34.1133 53.0537 34.3572 53.0079C34.5465 52.9874 34.71 52.9114 34.8191 52.8608L34.8736 52.8354C34.9281 52.8101 34.9281 52.8101 34.9826 52.7848C35.0916 52.7341 35.1461 52.7088 35.281 52.7136C36.3138 52.3687 37.3208 51.9683 38.3279 51.5679C41.1854 50.4426 43.9914 49.2062 46.7428 47.9952C50.0939 46.5055 53.3102 45.0109 56.5264 43.5164C59.3611 42.1992 62.2503 40.8566 65.0849 39.5394C66.7748 38.7541 68.4934 37.888 70.1833 37.1027C70.5104 36.9508 70.8117 36.7432 71.1875 36.8387C72.0193 37.0598 73.6257 37.6637 73.2753 38.9068C73.014 39.7709 72.007 40.1714 71.2983 40.5007C70.9712 40.6527 70.5897 40.83 70.2626 40.982C69.2268 41.4633 68.1366 41.9699 67.1008 42.4512C66.6647 42.6538 66.2286 42.8565 65.7925 43.0591C67.4047 43.3903 68.8387 44.4794 69.6415 46.0644C70.6994 48.341 70.0188 51.1555 67.9643 52.5827C66.1825 53.8834 63.7269 53.8766 61.9458 52.6112C60.0843 51.3156 59.2703 48.9932 59.8016 46.8558C59.9193 46.396 60.1174 45.9663 60.3154 45.5367C59.4432 45.942 58.571 46.3473 57.6443 46.7779C53.9662 48.4196 50.288 50.0613 46.6098 51.7029C45.9012 52.0322 45.2212 52.2807 44.5125 52.61C46.3714 52.759 48.0464 53.9387 48.8721 55.7155C49.93 57.9922 49.2494 60.8067 47.195 62.2339C45.4131 63.5346 42.9575 63.5278 41.1764 62.2624C39.3149 60.9668 38.5009 58.6444 39.0322 56.507C39.2361 55.8046 39.5748 55.1071 39.9909 54.5761C39.0384 54.9512 38.1116 55.3818 37.1591 55.7569C36.1521 56.1574 35.0905 56.5831 34.0835 56.9836C33.0507 57.3285 32.0495 57.4561 31.0083 56.9272C29.8064 56.3379 28.8859 55.2127 28.1805 54.1226C27.24 52.6691 26.4372 51.0842 25.7692 49.5041C24.4332 46.3438 23.3957 43.1125 22.3581 39.8811C21.9769 38.7754 21.676 37.6999 21.0767 36.6956C20.1162 34.9138 18.6621 33.4964 17.0674 32.3469C15.1257 31.0211 12.8768 30.1756 10.5906 29.8201C9.21939 29.5796 7.8711 29.5309 6.51991 29.6187C5.22323 29.6811 3.90075 29.6879 2.61279 29.3412C1.91866 28.9885 1.19582 28.7168 0.748447 28.182C0.435905 27.652 0.42173 27.0509 0.754621 26.6262C1.67298 25.3217 3.78154 25.1521 5.18434 25.1754C5.64333 25.1647 6.12813 25.2095 6.55842 25.2796C9.38692 25.5182 12.2612 26.1406 14.9632 27.2481C15.8725 27.6358 16.8076 28.079 17.6881 28.5476C17.7972 28.4969 17.932 28.5018 18.041 28.4511C20.5657 27.7506 23.0646 26.9945 25.5634 26.2384C29.4193 25.1218 33.2494 23.9497 37.0795 22.7776C41.2079 21.5344 45.2818 20.3165 49.4103 19.0732C52.6694 18.0989 55.9831 17.0993 59.2164 16.0694C60.5476 15.6534 61.8788 15.2373 63.2358 14.8768C63.4539 14.7755 63.6919 15.0025 63.7693 15.1691C63.8209 15.2801 63.8467 15.3356 63.8983 15.4467C64.7814 17.0619 65.6903 18.7326 66.5189 20.3731C67.8178 22.7403 69.0047 25.2946 69.8933 27.92ZM43.1152 53.5969C41.3795 53.9983 40.1054 55.5357 39.9585 57.3594C39.7859 59.1275 40.7723 60.9648 42.4015 61.7607C44.0307 62.5565 46.0618 62.2203 47.3043 60.9003C48.5727 59.6357 48.8572 57.6805 48.0831 56.0147C47.2058 54.1267 45.0689 53.0941 43.1152 53.5969ZM68.0235 25.7506C67.4846 24.4481 66.8911 23.1709 66.2718 21.8383C65.8099 21.9854 65.4025 22.1072 64.9406 22.2543C63.7988 22.6499 62.6856 22.9646 61.5437 23.3602C62.2949 24.8341 62.9658 26.2778 63.717 27.7517C63.9351 27.6504 64.1531 27.5491 64.3712 27.4478C65.5704 26.8905 66.8242 26.3079 68.0235 25.7506ZM62.4523 36.4416C63.6516 35.8843 64.9054 35.3017 66.1047 34.7444C65.8209 34.1336 65.5628 33.5783 65.2245 32.9928C64.6052 31.6602 63.9056 30.2973 63.2864 28.9646C62.0871 29.5219 60.8878 30.0792 59.634 30.6618C60.5371 32.6053 61.4947 34.5234 62.4523 36.4416ZM62.8448 28.157C62.0936 26.6831 61.3711 25.1283 60.6199 23.6544C59.3432 24.0451 58.0924 24.4913 56.7612 24.9074C57.5898 26.5479 58.3638 28.2137 59.1924 29.8542C60.4462 29.2716 61.6455 28.7143 62.8448 28.157ZM54.4498 32.058C55.7581 31.4501 57.0664 30.8421 58.3202 30.2595C57.4658 28.5635 56.6917 26.8977 55.8373 25.2016C54.0987 25.7394 52.4405 26.3075 50.7019 26.8453C50.5383 26.9213 50.2945 26.9671 50.1309 27.0431C51.0886 28.9612 51.9917 30.9047 52.9235 32.7673C53.4686 32.514 53.9592 32.286 54.4498 32.058ZM52.1058 33.1473C51.1482 31.2291 50.2193 29.2301 49.2616 27.312C47.2505 27.9765 45.2135 28.5854 43.2024 29.2499C44.289 31.4457 45.2953 33.6113 46.3819 35.8071C48.2899 34.9205 50.1978 34.0339 52.1058 33.1473ZM27.6037 44.4655C29.1043 43.7007 30.7109 43.0216 32.2373 42.3123C32.4008 42.2363 32.5644 42.1603 32.7279 42.0843C31.4607 39.4998 30.2192 36.9709 29.0065 34.3611C28.9291 34.1945 28.8259 33.9724 28.7485 33.8058C28.5304 33.9071 28.3411 33.9276 28.123 34.0289C26.8463 34.4196 25.5954 34.8659 24.3187 35.2566C24.68 36.0339 25.0125 36.8922 25.3192 37.6949C25.8553 39.1338 26.311 40.5424 26.8471 41.9813C27.0448 42.8347 27.3515 43.6374 27.6037 44.4655ZM29.2307 32.704C31.2419 32.0395 33.2243 31.4559 35.2355 30.7914C34.3037 28.9288 33.4264 27.0408 32.4946 25.1782C30.4576 25.7872 28.4206 26.3961 26.4382 26.9797C26.7994 27.7571 27.1349 28.479 27.5506 29.231C28.1212 30.3163 28.6631 31.4824 29.2307 32.704ZM33.6259 41.7346C35.5339 40.848 37.3873 39.9867 39.2953 39.1001C38.1828 36.8488 37.0991 34.5166 35.9867 32.2653C35.8835 32.0432 35.8061 31.8766 35.7028 31.6545C33.6917 32.319 31.7092 32.9026 29.6981 33.5671C30.9395 36.096 32.2068 38.6805 33.3937 41.2348C33.4711 41.4014 33.5485 41.568 33.6259 41.7346ZM40.1675 38.6948C40.9852 38.3148 41.7483 37.9602 42.566 37.5802C43.5473 37.1243 44.5285 36.6683 45.5097 36.2124C44.4489 34.0721 43.4426 31.9065 42.3818 29.7662C42.356 29.7107 42.3044 29.5997 42.2785 29.5441C40.9473 29.9602 39.6707 30.3509 38.3653 30.8224C37.7943 31.0202 37.2234 31.218 36.6267 31.3603C37.762 33.8035 38.9518 36.2214 40.1675 38.6948C40.1417 38.6393 40.1675 38.6948 40.1675 38.6948ZM42.7092 28.3313C44.7204 27.6668 46.7573 27.0578 48.7685 26.3933C47.8625 24.5862 47.0368 22.8094 46.1308 21.0023C44.0938 21.6112 42.0568 22.2202 40.0199 22.8291C40.3295 23.4955 40.665 24.2173 41.0291 24.8583C41.6513 26.0546 42.1931 27.2207 42.7092 28.3313ZM56.4028 23.9936C57.6795 23.6029 58.9304 23.1567 60.2071 22.766C59.3269 21.0144 58.527 19.293 57.6468 17.5415C56.3701 17.9322 55.0934 18.3229 53.8167 18.7136C54.1005 19.3244 54.3844 19.9352 54.7227 20.5207C55.2646 21.6868 55.8064 22.8528 56.4028 23.9936ZM58.5706 17.2472C58.8544 17.858 59.1383 18.4688 59.4766 19.0543C60.0185 20.2204 60.589 21.3056 61.1309 22.4717C61.4293 22.4006 61.7018 22.2739 62.0002 22.2028C63.2769 21.8121 64.5278 21.3659 65.8045 20.9752C65.4948 20.3088 65.1307 19.6678 64.8211 19.0015C64.2763 17.9718 63.7315 16.9421 63.1868 15.9124C62.7248 16.0595 62.2371 16.1511 61.8297 16.2729C60.7166 16.5876 59.6838 16.9325 58.5706 17.2472ZM48.1677 20.3933C47.8149 20.4898 47.462 20.5862 47.1091 20.6827C47.4187 21.349 47.7026 21.9598 48.0667 22.6008C48.6086 23.7669 49.2049 24.9077 49.7468 26.0738C50.4268 25.8253 51.1325 25.6324 51.8125 25.384C53.0347 25.0186 54.231 24.5977 55.5077 24.207C54.6275 22.4554 53.8018 20.6785 52.9216 18.927C51.3178 19.4697 49.7428 19.9315 48.1677 20.3933ZM35.8082 24.1786C35.0479 24.3968 34.2332 24.6404 33.4729 24.8586C33.8341 25.636 34.2212 26.4689 34.6369 27.221C35.153 28.3316 35.6978 29.3613 36.2138 30.4718C37.2466 30.1269 38.3598 29.8122 39.3926 29.4673C40.2074 29.2237 41.0222 28.9801 41.8657 28.6557C40.9597 26.8486 40.0824 24.9607 39.1764 23.1536C38.0632 23.4683 36.8956 23.8083 35.8082 24.1786ZM18.8355 29.1622C20.8575 30.5182 22.5754 32.2181 23.8514 34.3934C24.3133 34.2463 24.7207 34.1245 25.1826 33.9774C26.2154 33.6325 27.2741 33.3431 28.3614 32.9729C27.4038 31.0547 26.5007 29.1113 25.5689 27.2486C25.216 27.3451 24.9176 27.4162 24.5906 27.5682C22.6368 28.071 20.7089 28.6293 18.8355 29.1622ZM63.3136 44.1435C63.1501 44.2195 62.9866 44.2955 62.823 44.3715C61.595 45.0096 60.7312 46.2888 60.6189 47.7588C60.4463 49.527 61.4326 51.3643 63.0618 52.1601C64.691 52.956 66.7222 52.6198 67.9647 51.2997C69.233 50.0352 69.5176 48.08 68.7435 46.4141C67.8662 44.5262 65.8096 43.5238 63.7756 43.9964C63.5862 44.0168 63.4227 44.0928 63.3136 44.1435ZM30.4013 52.4829C29.455 51.3023 28.8099 49.9141 28.1906 48.5814C27.2905 46.5015 26.5538 44.3457 25.8171 42.1898C25.3069 40.8065 24.8512 39.3978 24.3409 38.0145C23.9597 36.9088 23.5498 35.884 22.9505 34.8796C21.987 33.2342 20.6678 31.8217 19.208 30.6771C18.6774 30.2485 18.1181 29.9007 17.5588 29.5529C17.4785 29.5227 17.3981 29.4925 17.3723 29.437C15.1064 28.1268 12.5879 27.2716 10.0349 26.77C8.37116 26.3278 6.75613 26.133 5.13818 26.0746C4.2747 26.0707 3.3825 26.1477 2.61932 26.5024C2.34676 26.629 2.0742 26.7557 1.82744 26.9379C1.60938 27.0392 1.52616 27.1454 1.46874 27.3071C1.44003 27.388 1.44294 27.2516 1.44003 27.388L1.46583 27.4435C1.59776 27.5847 1.80999 27.7562 2.05094 27.8468C3.03763 28.4011 4.17077 28.4146 5.24939 28.4536C6.65219 28.4769 8.0579 28.3638 9.5123 28.4982C13.9558 28.9315 18.3645 31.0015 21.0916 34.7306C22.7433 37.0014 23.4138 39.7281 24.2737 42.4344C25.3887 45.8323 26.584 49.2605 28.3531 52.3544C29.0298 53.5254 29.8126 54.7821 30.9025 55.5585C31.3012 55.8458 31.7544 56.1079 32.265 56.2082C32.7498 56.253 33.1284 56.212 33.5358 56.0903C35.9286 55.2485 38.2984 54.2147 40.6138 53.2064C44.0997 51.7215 47.5598 50.1812 51.0199 48.6409C54.5891 47.0499 58.2127 45.4335 61.756 43.787C61.9741 43.6857 62.2467 43.559 62.4647 43.4577C62.5737 43.407 62.7373 43.3311 62.8463 43.2804C65.0813 42.2418 67.3421 41.2588 69.5227 40.2455C69.9042 40.0682 70.2858 39.8909 70.6674 39.7136C70.94 39.5869 71.2126 39.4602 71.5396 39.3083C71.8122 39.1816 72.2225 38.9234 72.3631 38.6555C72.4464 38.5493 72.3631 38.6555 72.3919 38.5747L72.366 38.5191L72.3402 38.4636C72.3402 38.4636 72.3144 38.4081 72.2341 38.3779C72.1538 38.3477 72.128 38.2922 72.0477 38.262C71.9416 38.1762 71.9416 38.1762 71.7809 38.1158C71.54 38.0252 71.299 37.9347 71.0581 37.8441C71.0581 37.8441 71.0581 37.8441 71.0036 37.8694C69.6408 38.5027 68.3037 39.1915 66.9409 39.8248C64.3243 41.0407 61.788 42.2868 59.1714 43.5027C56.0642 44.9465 52.9569 46.3904 49.8784 47.7534C46.9634 49.0405 44.0485 50.3275 41.1077 51.559C39.1194 52.4154 37.0508 53.2416 34.9593 53.8759C34.3626 54.0181 33.7659 54.1604 33.1462 54.1107C31.9902 53.9052 31.0867 53.2447 30.4013 52.4829ZM33.6954 49.872C34.4585 49.5173 35.2762 49.1374 36.0394 48.7827C35.6782 48.0053 35.3169 47.228 34.9012 46.4759C34.3593 45.3098 33.7629 44.1691 33.2211 43.003C32.7305 43.231 32.2399 43.4589 31.7492 43.6869C30.4954 44.2695 29.2416 44.8521 28.0424 45.4094C28.4523 46.4343 28.8077 47.4844 29.2722 48.4839C29.7108 49.4279 30.1208 50.4527 30.6972 51.2652L30.7517 51.2399C31.7071 50.7284 32.7141 50.3279 33.6954 49.872ZM39.5024 47.106C40.4837 46.6501 41.4649 46.1941 42.4461 45.7381C42.1107 45.0163 41.8011 44.3499 41.4111 43.6534C40.8434 42.4318 40.1955 41.18 39.6278 39.9584C37.7198 40.845 35.8664 41.7062 33.9585 42.5928C34.9161 44.511 35.8192 46.4544 36.7768 48.3726C37.758 47.9166 38.6302 47.5113 39.5024 47.106ZM47.0797 43.585C47.6248 43.3317 48.17 43.0784 48.6606 42.8504C48.351 42.184 48.0155 41.4622 47.6514 40.8212C47.0579 39.544 46.4357 38.3477 45.8423 37.0706C44.4249 37.7292 42.9531 38.4132 41.5357 39.0718C41.2087 39.2238 40.8816 39.3757 40.5 39.5531C41.4576 41.4712 42.3607 43.4147 43.3183 45.3328C44.6266 44.7249 45.8259 44.1676 47.0797 43.585ZM55.1476 39.836C55.2021 39.8106 55.2566 39.7853 55.3111 39.76C55.0015 39.0936 54.7177 38.4828 54.3535 37.8418C53.7601 36.5647 53.0863 35.2573 52.4928 33.9802C50.5849 34.8668 48.6769 35.7534 46.769 36.64C47.7266 38.5581 48.6297 40.5016 49.5873 42.4197C51.4407 41.5585 53.2942 40.6972 55.1476 39.836ZM61.5801 36.8469C61.2963 36.2361 61.0125 35.6253 60.6483 34.9843C60.029 33.6516 59.3811 32.3998 58.7618 31.0671C57.0174 31.8777 55.2185 32.7136 53.474 33.5242C53.4195 33.5496 53.4195 33.5496 53.365 33.5749C54.3226 35.493 55.2257 37.4365 56.1834 39.3547C57.9823 38.5187 59.7812 37.6828 61.5801 36.8469ZM69.4481 29.8148C69.1472 28.7393 68.7918 27.6892 68.3561 26.6088C66.9645 27.323 65.5214 27.926 64.1041 28.5846C64.1299 28.6402 64.1557 28.6957 64.1557 28.6957C65.0875 30.5583 65.9648 32.4463 66.9224 34.3644C67.1404 34.2631 67.3585 34.1618 67.5765 34.0604C68.0671 33.8325 68.5578 33.6045 69.0484 33.3765C69.1029 33.3512 69.2119 33.3005 69.2664 33.2752L69.3209 33.2498C69.3755 33.2245 69.4042 33.1437 69.4042 33.1437C69.5706 32.9313 69.6022 32.714 69.6338 32.4968C69.8951 31.6327 69.6716 30.7237 69.4481 29.8148Z" fill="black"/>
</g>
<defs>
<clipPath id="clip0">
<rect width="63.0563" height="52.2906" fill="white" transform="translate(0 26.5724) rotate(-24.9235)"/>
</clipPath>
</defs>
</svg>
