<svg width="20" height="18" viewBox="0 0 20 18" fill="none" xmlns="http://www.w3.org/2000/svg">
<path fill-rule="evenodd" clip-rule="evenodd" d="M3.64737 9.94743C3.07421 9.94743 2.60526 10.3737 2.60526 10.8948C2.60526 11.4159 3.07421 11.8422 3.64737 11.8422C4.22053 11.8422 4.68947 11.4159 4.68947 10.8948C4.68947 10.3737 4.22053 9.94743 3.64737 9.94743ZM3.64737 13.7369C3.07421 13.7369 2.60526 14.1632 2.60526 14.6843C2.60526 15.2053 3.07421 15.6316 3.64737 15.6316C4.22053 15.6316 4.68947 15.2053 4.68947 14.6843C4.68947 14.1632 4.22053 13.7369 3.64737 13.7369ZM3.64737 6.15784C3.07421 6.15784 2.60526 6.58416 2.60526 7.10522C2.60526 7.62627 3.07421 8.05259 3.64737 8.05259C4.22053 8.05259 4.68947 7.62627 4.68947 7.10522C4.68947 6.58416 4.22053 6.15784 3.64737 6.15784ZM0.521054 6.63158C0.229264 6.63158 0 6.84 0 7.10526C0 7.37053 0.229264 7.57895 0.521054 7.57895C0.812845 7.57895 1.04211 7.37053 1.04211 7.10526C1.04211 6.84 0.812845 6.63158 0.521054 6.63158ZM3.64737 2.36839C3.07421 2.36839 2.60526 2.79471 2.60526 3.31576C2.60526 3.83682 3.07421 4.26313 3.64737 4.26313C4.22053 4.26313 4.68947 3.83682 4.68947 3.31576C4.68947 2.79471 4.22053 2.36839 3.64737 2.36839ZM19.279 7.57895C19.5708 7.57895 19.8 7.37053 19.8 7.10526C19.8 6.84 19.5708 6.63158 19.279 6.63158C18.9872 6.63158 18.7579 6.84 18.7579 7.10526C18.7579 7.37053 18.9872 7.57895 19.279 7.57895ZM11.9843 4.26313C12.5574 4.26313 13.0264 3.83682 13.0264 3.31576C13.0264 2.79471 12.5574 2.36839 11.9843 2.36839C11.4111 2.36839 10.9422 2.79471 10.9422 3.31576C10.9422 3.83682 11.4111 4.26313 11.9843 4.26313ZM11.9842 0.947371C12.276 0.947371 12.5053 0.73895 12.5053 0.473686C12.5053 0.208422 12.276 0 11.9842 0C11.6924 0 11.4632 0.208422 11.4632 0.473686C11.4632 0.73895 11.6924 0.947371 11.9842 0.947371ZM0.521054 10.421C0.229264 10.421 0 10.6295 0 10.8947C0 11.16 0.229264 11.3684 0.521054 11.3684C0.812845 11.3684 1.04211 11.16 1.04211 10.8947C1.04211 10.6295 0.812845 10.421 0.521054 10.421ZM7.81583 17.0526C7.52404 17.0526 7.29477 17.261 7.29477 17.5263C7.29477 17.7916 7.52404 18 7.81583 18C8.10762 18 8.33688 17.7916 8.33688 17.5263C8.33688 17.261 8.10762 17.0526 7.81583 17.0526ZM7.81583 0.947371C8.10762 0.947371 8.33688 0.73895 8.33688 0.473686C8.33688 0.208422 8.10762 0 7.81583 0C7.52404 0 7.29477 0.208422 7.29477 0.473686C7.29477 0.73895 7.52404 0.947371 7.81583 0.947371ZM7.81589 4.26313C8.38904 4.26313 8.85799 3.83682 8.85799 3.31576C8.85799 2.79471 8.38904 2.36839 7.81589 2.36839C7.24273 2.36839 6.77378 2.79471 6.77378 3.31576C6.77378 3.83682 7.24273 4.26313 7.81589 4.26313ZM7.81581 9.4737C6.95086 9.4737 6.25264 10.1084 6.25264 10.8948C6.25264 11.6811 6.95086 12.3158 7.81581 12.3158C8.68076 12.3158 9.37897 11.6811 9.37897 10.8948C9.37897 10.1084 8.68076 9.4737 7.81581 9.4737ZM16.1527 9.94743C15.5795 9.94743 15.1105 10.3737 15.1105 10.8948C15.1105 11.4159 15.5795 11.8422 16.1527 11.8422C16.7258 11.8422 17.1948 11.4159 17.1948 10.8948C17.1948 10.3737 16.7258 9.94743 16.1527 9.94743ZM16.1527 13.7369C15.5795 13.7369 15.1105 14.1632 15.1105 14.6843C15.1105 15.2053 15.5795 15.6316 16.1527 15.6316C16.7258 15.6316 17.1948 15.2053 17.1948 14.6843C17.1948 14.1632 16.7258 13.7369 16.1527 13.7369ZM16.1527 6.15784C15.5795 6.15784 15.1105 6.58416 15.1105 7.10522C15.1105 7.62627 15.5795 8.05259 16.1527 8.05259C16.7258 8.05259 17.1948 7.62627 17.1948 7.10522C17.1948 6.58416 16.7258 6.15784 16.1527 6.15784ZM16.1527 2.36839C15.5795 2.36839 15.1105 2.79471 15.1105 3.31576C15.1105 3.83682 15.5795 4.26313 16.1527 4.26313C16.7258 4.26313 17.1948 3.83682 17.1948 3.31576C17.1948 2.79471 16.7258 2.36839 16.1527 2.36839ZM19.279 10.421C18.9872 10.421 18.7579 10.6295 18.7579 10.8947C18.7579 11.16 18.9872 11.3684 19.279 11.3684C19.5708 11.3684 19.8 11.16 19.8 10.8947C19.8 10.6295 19.5708 10.421 19.279 10.421ZM11.9843 13.7369C11.4111 13.7369 10.9422 14.1632 10.9422 14.6843C10.9422 15.2053 11.4111 15.6316 11.9843 15.6316C12.5574 15.6316 13.0264 15.2053 13.0264 14.6843C13.0264 14.1632 12.5574 13.7369 11.9843 13.7369ZM11.9843 17.0526C11.6926 17.0526 11.4633 17.261 11.4633 17.5263C11.4633 17.7916 11.6926 18 11.9843 18C12.2761 18 12.5054 17.7916 12.5054 17.5263C12.5054 17.261 12.2761 17.0526 11.9843 17.0526ZM7.81581 5.68425C6.95086 5.68425 6.25264 6.31899 6.25264 7.1053C6.25264 7.89162 6.95086 8.52636 7.81581 8.52636C8.68076 8.52636 9.37897 7.89162 9.37897 7.1053C9.37897 6.31899 8.68076 5.68425 7.81581 5.68425ZM7.81589 13.7369C7.24273 13.7369 6.77378 14.1632 6.77378 14.6843C6.77378 15.2053 7.24273 15.6316 7.81589 15.6316C8.38904 15.6316 8.85799 15.2053 8.85799 14.6843C8.85799 14.1632 8.38904 13.7369 7.81589 13.7369ZM11.9842 9.4737C11.1192 9.4737 10.421 10.1084 10.421 10.8948C10.421 11.6811 11.1192 12.3158 11.9842 12.3158C12.8491 12.3158 13.5474 11.6811 13.5474 10.8948C13.5474 10.1084 12.8491 9.4737 11.9842 9.4737ZM11.9842 5.68425C11.1192 5.68425 10.421 6.31899 10.421 7.1053C10.421 7.89162 11.1192 8.52636 11.9842 8.52636C12.8491 8.52636 13.5474 7.89162 13.5474 7.1053C13.5474 6.31899 12.8491 5.68425 11.9842 5.68425Z" fill="#B92227"/>
</svg>
