<svg width="33" height="18" viewBox="0 0 33 18" fill="none" xmlns="http://www.w3.org/2000/svg">
<path fill-rule="evenodd" clip-rule="evenodd" d="M33 3C33 4.65 31.65 6 30 6C29.73 6 29.475 5.97 29.235 5.895L23.895 11.22C23.97 11.46 24 11.73 24 12C24 13.65 22.65 15 21 15C19.35 15 18 13.65 18 12C18 11.73 18.03 11.46 18.105 11.22L14.28 7.395C14.04 7.47 13.77 7.5 13.5 7.5C13.23 7.5 12.96 7.47 12.72 7.395L5.895 14.235C5.97 14.475 6 14.73 6 15C6 16.65 4.65 18 3 18C1.35 18 0 16.65 0 15C0 13.35 1.35 12 3 12C3.27 12 3.525 12.03 3.765 12.105L10.605 5.28C10.53 5.04 10.5 4.77 10.5 4.5C10.5 2.85 11.85 1.5 13.5 1.5C15.15 1.5 16.5 2.85 16.5 4.5C16.5 4.77 16.47 5.04 16.395 5.28L20.22 9.105C20.46 9.03 20.73 9 21 9C21.27 9 21.54 9.03 21.78 9.105L27.105 3.765C27.03 3.525 27 3.27 27 3C27 1.35 28.35 0 30 0C31.65 0 33 1.35 33 3Z" fill="#B92227"/>
</svg>
