<svg width="41" height="30" viewBox="0 0 41 30" fill="none" xmlns="http://www.w3.org/2000/svg">
<path d="M37.5833 0H3.41667C1.52969 0 0 1.67893 0 3.75V26.25C0 28.3211 1.52969 30 3.41667 30H37.5833C39.4703 30 41 28.3211 41 26.25V3.75C41 1.67893 39.4703 0 37.5833 0Z" fill="white"/>
<path d="M15.3749 24.375C20.0923 24.375 23.9166 20.1777 23.9166 15C23.9166 9.82233 20.0923 5.625 15.3749 5.625C10.6575 5.625 6.83325 9.82233 6.83325 15C6.83325 20.1777 10.6575 24.375 15.3749 24.375Z" fill="#EB001B"/>
<path d="M25.6252 24.375C30.3426 24.375 34.1668 20.1777 34.1668 15C34.1668 9.82233 30.3426 5.625 25.6252 5.625C20.9077 5.625 17.0835 9.82233 17.0835 15C17.0835 20.1777 20.9077 24.375 25.6252 24.375Z" fill="#F79E1B"/>
<path fill-rule="evenodd" clip-rule="evenodd" d="M20.5002 7.49927C22.5748 9.20965 23.9168 11.9328 23.9168 15C23.9168 18.0671 22.5748 20.7903 20.5002 22.5006C18.4255 20.7903 17.0835 18.0671 17.0835 15C17.0835 11.9328 18.4255 9.20965 20.5002 7.49927Z" fill="#FF5F00"/>
</svg>
