<svg width="22" height="22" viewBox="0 0 22 22" fill="none" xmlns="http://www.w3.org/2000/svg">
<circle cx="11" cy="11" r="11" fill="#B92227"/>
<path d="M10.638 14.2093C10.542 14.2093 10.462 14.1773 10.398 14.1133C10.334 14.0493 10.302 13.9693 10.302 13.8733V13.2333C10.3233 12.668 10.4673 12.1826 10.734 11.7773C11.0006 11.372 11.39 10.908 11.902 10.3853C12.318 9.95865 12.622 9.60665 12.814 9.32931C13.006 9.05198 13.102 8.74798 13.102 8.41731C13.102 7.92665 12.894 7.53731 12.478 7.24931C12.0726 6.96131 11.598 6.81731 11.054 6.81731C9.78463 6.81731 9.03796 7.45731 8.81396 8.73731C8.76063 8.97198 8.62196 9.08931 8.39796 9.08931H7.62996C7.52329 9.08931 7.43796 9.05731 7.37396 8.99331C7.30996 8.92931 7.27796 8.84398 7.27796 8.73731C7.29929 8.15065 7.46463 7.61198 7.77396 7.12131C8.09396 6.61998 8.54196 6.21998 9.11796 5.92131C9.69396 5.62265 10.3553 5.47331 11.102 5.47331C11.8913 5.47331 12.5526 5.61198 13.086 5.88931C13.63 6.15598 14.03 6.50798 14.286 6.94531C14.542 7.37198 14.67 7.83065 14.67 8.32131C14.67 8.86531 14.5473 9.33465 14.302 9.72931C14.0566 10.124 13.6886 10.5826 13.198 11.1053C12.7926 11.532 12.4886 11.8946 12.286 12.1933C12.0833 12.4813 11.966 12.8066 11.934 13.1693C11.9126 13.468 11.902 13.692 11.902 13.8413C11.8486 14.0866 11.7153 14.2093 11.502 14.2093H10.638ZM10.51 16.8333C10.4033 16.8333 10.3126 16.8013 10.238 16.7373C10.174 16.6626 10.142 16.572 10.142 16.4653V15.4893C10.142 15.3826 10.174 15.2973 10.238 15.2333C10.3126 15.1586 10.4033 15.1213 10.51 15.1213H11.55C11.6566 15.1213 11.7473 15.1586 11.822 15.2333C11.8966 15.2973 11.934 15.3826 11.934 15.4893V16.4653C11.934 16.572 11.8966 16.6626 11.822 16.7373C11.7473 16.8013 11.6566 16.8333 11.55 16.8333H10.51Z" fill="white"/>
</svg>
