<svg width="191" height="63" viewBox="0 0 191 63" fill="none" xmlns="http://www.w3.org/2000/svg">
<path d="M118.04 17.01C117.23 17.01 116.57 16.75 116.57 16.44C116.57 7.33005 114.84 1.69005 106.25 1.69005C97.5197 1.69005 95.9297 6.66005 95.9297 16.44C95.9297 16.75 95.2697 17.01 94.4597 17.01C93.6497 17.01 92.9897 16.75 92.9897 16.44C92.9897 5.90005 95.0397 0.550049 106.24 0.550049C118.48 0.550049 119.5 8.07005 119.5 16.44C119.51 16.76 118.85 17.01 118.04 17.01Z" fill="white"/>
<path d="M141.26 12.76H106.26H71.2598L78.2598 46.84H106.26H134.26L141.26 12.76ZM96.6898 14.38C96.6898 14.96 95.6998 15.44 94.4698 15.44C93.2398 15.44 92.2498 14.97 92.2498 14.38C92.2498 13.8 93.2398 13.32 94.4698 13.32C95.6898 13.32 96.6898 13.79 96.6898 14.38ZM120.27 14.38C120.27 14.96 119.28 15.44 118.05 15.44C116.82 15.44 115.83 14.97 115.83 14.38C115.83 13.8 116.82 13.32 118.05 13.32C119.27 13.32 120.27 13.79 120.27 14.38Z" fill="#B92328"/>
<path d="M10.1999 20.3599C11.4299 19.7099 12.8599 19.3899 14.5099 19.3899C16.4299 19.3899 18.1699 19.8599 19.7299 20.8099C21.2899 21.7499 22.5199 23.0999 23.4299 24.8499C24.3399 26.5999 24.7899 28.6399 24.7899 30.9599C24.7899 33.2799 24.3399 35.3199 23.4299 37.0899C22.5199 38.8599 21.2899 40.2199 19.7299 41.1699C18.1699 42.1299 16.4299 42.6099 14.5099 42.6099C12.8899 42.6099 11.4699 42.2899 10.2299 41.6399C8.98992 40.9899 8.01992 40.1599 7.31992 39.1299V53.0399H0.169922V19.7099H7.31992V22.8999C8.01992 21.8499 8.97992 20.9999 10.1999 20.3599ZM16.0299 26.8899C15.0399 25.9099 13.8199 25.4099 12.3699 25.4099C10.9499 25.4099 9.73992 25.9099 8.74992 26.9099C7.75992 27.9099 7.26992 29.2699 7.26992 30.9899C7.26992 32.7099 7.75992 34.0799 8.74992 35.0699C9.73992 36.0699 10.9399 36.5699 12.3699 36.5699C13.7899 36.5699 14.9999 36.0599 16.0099 35.0499C17.0099 34.0399 17.5099 32.6699 17.5099 30.9399C17.5099 29.2099 17.0199 27.8699 16.0299 26.8899Z" fill="white"/>
<path d="M28.4901 24.8399C29.4001 23.0899 30.6301 21.7399 32.1901 20.7999C33.7501 19.8599 35.4901 19.3799 37.4101 19.3799C39.0501 19.3799 40.5001 19.6999 41.7401 20.3499C42.9801 20.9999 43.9301 21.8499 44.6001 22.8999V19.7099H51.7501V42.2799H44.6001V39.0799C43.9001 40.1299 42.9301 40.9799 41.6901 41.6299C40.4501 42.2799 39.0101 42.5999 37.3601 42.5999C35.4601 42.5999 33.7401 42.1199 32.1801 41.1599C30.6201 40.1999 29.3901 38.8399 28.4801 37.0799C27.5701 35.3199 27.1201 33.2699 27.1201 30.9499C27.1301 28.6299 27.5801 26.5999 28.4901 24.8399ZM43.1201 26.9099C42.1301 25.9099 40.9301 25.4099 39.5001 25.4099C38.0801 25.4099 36.8701 25.8999 35.8801 26.8899C34.8901 27.8699 34.4001 29.2299 34.4001 30.9499C34.4001 32.6699 34.8901 34.0399 35.8801 35.0599C36.8701 36.0699 38.0701 36.5799 39.5001 36.5799C40.9201 36.5799 42.1301 36.0799 43.1201 35.0799C44.1101 34.0799 44.6001 32.7199 44.6001 30.9999C44.6001 29.2799 44.1101 27.9099 43.1201 26.9099Z" fill="white"/>
<path d="M69.93 36.41V42.27H66.3C63.71 42.27 61.69 41.66 60.24 40.43C58.79 39.2 58.07 37.2 58.07 34.43V25.45H55.23V19.71H58.07V14.21H65.22V19.71H69.9V25.45H65.22V34.51C65.22 35.18 65.39 35.67 65.72 35.97C66.05 36.27 66.61 36.41 67.39 36.41H69.93Z" fill="white"/>
<path d="M73.8397 24.8399C74.7497 23.0899 75.9797 21.7399 77.5397 20.7999C79.0997 19.8599 80.8397 19.3799 82.7597 19.3799C84.3997 19.3799 85.8497 19.6999 87.0897 20.3499C88.3297 20.9999 89.2797 21.8499 89.9497 22.8999V19.7099H97.0997V42.2799H89.9497V39.0799C89.2497 40.1299 88.2797 40.9799 87.0397 41.6299C85.7997 42.2799 84.3597 42.5999 82.7097 42.5999C80.8097 42.5999 79.0897 42.1199 77.5297 41.1599C75.9697 40.1999 74.7397 38.8399 73.8297 37.0799C72.9197 35.3199 72.4697 33.2699 72.4697 30.9499C72.4797 28.6299 72.9397 26.5999 73.8397 24.8399ZM88.4697 26.9099C87.4797 25.9099 86.2797 25.4099 84.8497 25.4099C83.4297 25.4099 82.2197 25.8999 81.2297 26.8899C80.2397 27.8699 79.7497 29.2299 79.7497 30.9499C79.7497 32.6699 80.2397 34.0399 81.2297 35.0599C82.2197 36.0699 83.4197 36.5799 84.8497 36.5799C86.2697 36.5799 87.4797 36.0799 88.4697 35.0799C89.4597 34.0799 89.9497 32.7199 89.9497 30.9999C89.9497 29.2799 89.4597 27.9099 88.4697 26.9099Z" fill="white"/>
<path d="M126.7 36.57H136.82V42.27H118.72V36.77L128.42 25.41H118.81V19.71H136.62V25.21L126.7 36.57Z" fill="white"/>
<path d="M145.19 41.1799C143.36 40.2399 141.93 38.8899 140.88 37.1399C139.84 35.3899 139.31 33.3399 139.31 30.9899C139.31 28.6699 139.84 26.6299 140.9 24.8599C141.96 23.0899 143.41 21.7399 145.25 20.7999C147.09 19.8599 149.15 19.3799 151.44 19.3799C153.73 19.3799 155.79 19.8499 157.63 20.7999C159.47 21.7399 160.92 23.0999 161.98 24.8599C163.04 26.6299 163.57 28.6699 163.57 30.9899C163.57 33.3099 163.03 35.3499 161.96 37.1199C160.89 38.8899 159.42 40.2399 157.57 41.1799C155.72 42.1199 153.65 42.5999 151.36 42.5999C149.07 42.5999 147.02 42.1299 145.19 41.1799ZM154.85 35.1599C155.81 34.1899 156.29 32.7999 156.29 30.9899C156.29 29.1799 155.82 27.7999 154.89 26.8199C153.96 25.8499 152.81 25.3599 151.44 25.3599C150.05 25.3599 148.89 25.8399 147.97 26.7999C147.05 27.7599 146.59 29.1499 146.59 30.9899C146.59 32.7999 147.04 34.1899 147.95 35.1599C148.85 36.1299 149.99 36.6199 151.36 36.6199C152.72 36.6099 153.89 36.1299 154.85 35.1599Z" fill="white"/>
<path d="M188.12 22.03C189.75 23.74 190.56 26.09 190.56 29.09V42.27H183.45V30.02C183.45 28.51 183.05 27.34 182.24 26.5C181.43 25.66 180.34 25.25 178.98 25.25C177.62 25.25 176.53 25.67 175.72 26.5C174.91 27.34 174.51 28.51 174.51 30.02V42.27H167.36V19.71H174.51V22.7C175.23 21.7 176.21 20.91 177.44 20.33C178.67 19.75 180.05 19.46 181.58 19.46C184.31 19.47 186.49 20.32 188.12 22.03Z" fill="white"/>
<path d="M104.16 27.51V28.48C104.16 28.74 104.32 28.99 104.59 29.14L109.98 32.26C110.2 32.39 110.2 32.64 109.98 32.77L104.59 35.89C104.32 36.05 104.16 36.29 104.16 36.55V37.52C104.16 37.79 104.56 37.94 104.83 37.78L113.39 32.83C113.66 32.67 113.66 32.36 113.39 32.21L104.83 27.26C104.55 27.08 104.16 27.24 104.16 27.51Z" fill="white"/>
<path d="M104.83 31.0801L106.77 32.2001C107.04 32.3601 107.04 32.6701 106.77 32.8201L104.83 33.9401C104.55 34.1001 104.16 33.9501 104.16 33.6801V31.3401C104.16 31.0701 104.55 30.9201 104.83 31.0801Z" fill="white"/>
<path d="M25.7501 55.65C26.2901 55.65 26.5601 55.75 26.5601 55.95C26.5601 56.1 26.3101 56.22 25.8101 56.29C24.9401 56.43 24.5101 56.69 24.5101 57.06C24.5101 57.35 24.7601 57.58 25.2601 57.75C25.6901 57.89 26.2401 57.9599 26.9101 57.9599C28.2401 57.9599 29.4001 57.78 30.4001 57.43C31.0201 57.21 31.3401 56.92 31.3401 56.58C31.3401 56.37 31.2501 56.1799 31.0701 56.0099C30.8801 55.8399 30.5901 55.6199 30.1901 55.3499C29.5901 54.9399 29.0801 54.56 28.6701 54.22C28.2101 53.84 27.9801 53.47 27.9801 53.11C27.9801 52.25 28.9101 51.45 30.7701 50.7C31.7601 50.31 32.8401 49.99 34.0301 49.75C35.0201 49.55 35.9701 49.45 36.8801 49.45C37.4701 49.45 37.9801 49.52 38.3901 49.66C38.8901 49.83 39.1401 50.06 39.1401 50.36C39.1401 50.82 38.6001 51.3099 37.5101 51.8499C36.4801 52.3499 35.2901 52.76 33.9201 53.08C33.2401 53.24 32.7201 53.31 32.3701 53.31C32.1401 53.31 31.9301 53.27 31.7501 53.18C31.6301 53.12 31.5701 53.0499 31.5701 52.9799C31.5701 52.8099 31.9001 52.67 32.5701 52.57C33.7901 52.37 34.8601 52.09 35.8001 51.74C37.0101 51.28 37.6101 50.8799 37.6101 50.5299C37.6101 50.3999 37.4901 50.2899 37.2501 50.2099C37.0601 50.1499 36.8301 50.11 36.5701 50.11C35.8801 50.11 35.0101 50.2299 33.9601 50.4799C32.5501 50.8099 31.4401 51.23 30.6401 51.74C29.9401 52.19 29.5801 52.62 29.5801 53.04C29.5801 53.35 29.7701 53.66 30.1401 53.99C30.4501 54.25 30.8501 54.55 31.3301 54.88C31.7901 55.2 32.1901 55.4899 32.5101 55.7599C32.8801 56.0799 33.0701 56.38 33.0701 56.66C33.0701 57.2 32.3901 57.6799 31.0301 58.0999C29.8701 58.4499 28.5601 58.6199 27.1101 58.6199C25.6701 58.6199 24.5401 58.44 23.7301 58.08C23.1201 57.8 22.8101 57.49 22.8101 57.13C22.8101 56.73 23.1001 56.3999 23.6901 56.1199C24.0401 55.9499 24.4601 55.83 24.9401 55.75C25.2501 55.68 25.5301 55.65 25.7501 55.65Z" fill="white"/>
<path d="M40.0003 56.39C39.1303 56.92 38.5003 57.29 38.0803 57.49C37.5703 57.74 37.1203 57.94 36.7503 58.07C36.3303 58.21 35.9403 58.28 35.5703 58.28C35.2203 58.28 34.9503 58.2 34.7603 58.04C34.6103 57.92 34.5303 57.78 34.5303 57.63C34.5303 57.13 35.1803 56.44 36.4903 55.56C37.6803 54.76 38.5603 54.37 39.1303 54.37C39.2703 54.37 39.4103 54.4 39.5403 54.46C39.6603 54.52 39.7203 54.58 39.7203 54.65C39.7203 54.75 39.5203 54.89 39.1303 55.07C38.2903 55.45 37.5703 55.87 36.9603 56.34C36.4403 56.74 36.1803 57.01 36.1803 57.13C36.1803 57.22 36.2703 57.27 36.4503 57.27C37.0503 57.27 38.3603 56.67 40.3703 55.48C41.0203 55.09 41.4203 54.87 41.5603 54.81C41.8203 54.7 42.0903 54.64 42.3603 54.64C42.5403 54.64 42.7003 54.66 42.8303 54.71C42.9403 54.76 43.0003 54.8 43.0003 54.85C43.0003 54.91 42.7603 55.14 42.2803 55.55C41.1803 56.43 40.6303 57.03 40.6303 57.33C40.6303 57.45 40.7403 57.51 40.9503 57.51C41.3103 57.51 41.8103 57.32 42.4403 56.94C43.0403 56.58 43.6003 56.13 44.1203 55.58C44.3403 55.34 44.5403 55.03 44.7103 54.64C44.9103 54.19 45.3103 53.97 45.9203 53.97C46.2603 53.97 46.4303 54.06 46.4303 54.23C46.4303 54.83 45.7003 55.66 44.2303 56.71C42.7003 57.81 41.4103 58.36 40.3703 58.36C39.5903 58.36 39.2103 58.14 39.2103 57.71C39.2003 57.35 39.4603 56.91 40.0003 56.39Z" fill="white"/>
<path d="M50.3801 54.1801C50.5501 54.1801 50.6901 54.2101 50.8001 54.2701C50.8801 54.3201 50.9201 54.3701 50.9201 54.4201C50.9201 54.5001 50.7701 54.6401 50.4801 54.8301C49.4301 55.5701 48.6901 56.1801 48.2501 56.6601C47.7801 57.1501 47.3601 57.6601 47.0001 58.1801C46.8401 58.4101 46.5901 58.5201 46.2501 58.5201C46.0501 58.5201 45.8901 58.4801 45.7701 58.4101C45.6601 58.3501 45.6001 58.2901 45.6001 58.2201C45.6001 58.0801 45.9201 57.6201 46.5701 56.8401C47.0701 56.2201 47.8901 55.5501 49.0101 54.8001C49.3701 54.5601 49.6401 54.3901 49.8201 54.3101C50.0001 54.2301 50.1901 54.1801 50.3801 54.1801ZM53.2501 51.6301C53.7001 51.6301 53.9301 51.7401 53.9301 51.9501C53.9301 52.1401 53.7101 52.3601 53.2701 52.5901C52.8501 52.8201 52.4401 52.9301 52.0501 52.9301C51.8601 52.9301 51.7001 52.9001 51.5801 52.8301C51.4601 52.7701 51.4001 52.7001 51.4001 52.6101C51.4001 52.3901 51.6701 52.1601 52.2001 51.9101C52.5801 51.7201 52.9401 51.6301 53.2501 51.6301Z" fill="white"/>
<path d="M52.9899 55.0601C54.5299 53.5401 56.0299 52.3101 57.4999 51.3601C58.4999 50.7201 59.3199 50.2501 59.9799 49.9601C60.4299 49.7501 60.8199 49.6501 61.1399 49.6501C61.2599 49.6501 61.3699 49.6701 61.4599 49.7101C61.5999 49.7601 61.6699 49.8201 61.6699 49.9001C61.6699 50.0001 61.4899 50.1401 61.1399 50.3301C58.9199 51.4901 56.8999 52.8701 55.0999 54.4901C56.7099 54.2101 57.8299 54.0701 58.4699 54.0701C58.9299 54.0701 59.3099 54.1201 59.6199 54.2301C59.9299 54.3401 60.0899 54.4701 60.0899 54.6101C60.0899 54.6801 60.0299 54.7501 59.9199 54.8101C59.7699 54.9001 59.5699 54.9401 59.3299 54.9401C59.1599 54.9401 58.8199 54.8801 58.3199 54.7501C58.1799 54.7201 57.9999 54.7001 57.7799 54.7001C56.7699 54.7001 55.5699 54.9101 54.1599 55.3301C54.7599 55.4601 55.1899 55.6301 55.4399 55.8401C55.7799 56.1401 55.9499 56.5101 55.9499 56.9401C55.9499 58.0701 55.2199 59.2501 53.7499 60.5001C53.1199 61.0301 52.4999 61.4401 51.9099 61.7101C51.2799 62.0101 50.6299 62.1601 49.9599 62.1601C49.4599 62.1601 49.0499 62.0501 48.7399 61.8301C48.4899 61.6501 48.3599 61.4001 48.3599 61.0801C48.3599 60.4001 48.9199 59.3801 50.0499 58.0101C50.1899 57.8401 50.5899 57.4201 51.2599 56.7401C51.4299 56.5701 51.5999 56.3901 51.7599 56.2001C51.6799 56.2101 51.5999 56.2101 51.5299 56.2101C51.2599 56.2101 51.1199 56.1401 51.1199 56.0001C51.1199 55.7401 51.7399 55.4301 52.9899 55.0601ZM53.4999 55.9601C52.9399 56.4501 52.1899 57.2301 51.2699 58.3201C50.3099 59.4301 49.8399 60.2901 49.8399 60.9001C49.8399 61.0201 49.9099 61.1301 50.0399 61.2201C50.1799 61.3101 50.3499 61.3601 50.5399 61.3601C51.1599 61.3601 51.9799 60.8801 52.9999 59.9301C54.1499 58.8601 54.7199 57.8901 54.7199 57.0001C54.7199 56.6601 54.5699 56.4001 54.2799 56.2201C54.1599 56.1401 53.9099 56.0601 53.4999 55.9601Z" fill="white"/>
<path d="M63.9202 53.87C63.2702 54.33 62.6602 54.85 62.1102 55.43C61.3102 56.25 60.9202 56.86 60.9202 57.26C60.9202 57.38 60.9702 57.46 61.0802 57.52C61.1902 57.58 61.3402 57.61 61.5602 57.61C62.0602 57.61 62.6702 57.39 63.3902 56.96C63.8402 56.69 64.2502 56.43 64.6002 56.16C64.7902 56.01 65.0002 55.93 65.2202 55.93C65.3502 55.93 65.4602 55.95 65.5502 55.99C65.6302 56.03 65.6702 56.07 65.6702 56.11C65.6702 56.28 65.1802 56.66 64.2102 57.25C63.0402 57.96 61.9802 58.31 61.0102 58.31C60.5002 58.31 60.0702 58.2 59.7302 57.99C59.5202 57.85 59.4102 57.66 59.4102 57.4C59.4102 56.84 59.7602 56.2 60.4702 55.46C60.6402 55.28 61.1102 54.83 61.8902 54.13C61.6202 54.16 61.4101 54.18 61.2701 54.18C61.0601 54.18 60.8702 54.16 60.7102 54.11C60.4902 54.05 60.3801 53.97 60.3801 53.87C60.3801 53.76 60.5302 53.66 60.8202 53.59C60.9002 53.57 61.2702 53.54 61.9402 53.5C62.1802 53.48 62.5302 53.44 63.0002 53.37C63.3502 53.08 63.9302 52.69 64.7202 52.19C65.1602 51.91 65.4702 51.74 65.6402 51.65C65.8802 51.54 66.0901 51.48 66.2701 51.48C66.4001 51.48 66.5302 51.51 66.6602 51.58C66.7802 51.64 66.8401 51.7 66.8401 51.76C66.8401 51.88 66.5602 52.12 65.9902 52.47C65.6202 52.7 65.3402 52.89 65.1602 53.03C66.2802 52.89 67.0802 52.82 67.5602 52.82C68.1102 52.82 68.3902 52.93 68.3902 53.14C68.3902 53.25 68.2902 53.32 68.1002 53.37C68.0002 53.4 67.7402 53.42 67.3102 53.44C67.1402 53.43 66.3802 53.52 65.0302 53.7C64.6502 53.77 64.2802 53.82 63.9202 53.87Z" fill="white"/>
<path d="M67.3303 57.8301C67.8003 57.8301 68.0403 57.9701 68.0403 58.2401C68.0403 58.6601 67.5303 59.2001 66.5203 59.8801C66.1103 60.1601 65.6203 60.4101 65.0603 60.6401C64.7003 60.7901 64.4103 60.8701 64.1803 60.8701C63.9703 60.8701 63.8003 60.8301 63.6703 60.7401C63.5803 60.6801 63.5303 60.6201 63.5303 60.5501C63.5303 60.4501 63.7503 60.3101 64.1803 60.1301C65.4103 59.5901 66.1303 58.9601 66.3403 58.2401C66.3903 58.1101 66.5303 58.0001 66.7503 57.9301C66.9403 57.8601 67.1403 57.8301 67.3303 57.8301Z" fill="white"/>
<path d="M83.5199 50.4701C82.9999 50.7401 82.2999 51.1801 81.4399 51.7901C80.5599 52.4101 79.9399 52.9001 79.5499 53.2401C81.7199 53.0401 83.2299 52.9401 84.0599 52.9401C84.4599 52.9401 84.7699 52.9601 84.9799 53.0001C85.2199 53.0401 85.3399 53.1201 85.3399 53.2501C85.3399 53.5301 84.9899 53.6801 84.2799 53.6801C84.2399 53.6801 84.1599 53.6801 84.0399 53.6801C83.7399 53.6801 83.5199 53.6701 83.3799 53.6701C82.3799 53.6701 80.7299 53.8201 78.4099 54.1201C76.9399 55.2701 75.6499 56.6501 74.5299 58.2501C74.3799 58.4901 74.1399 58.6201 73.8199 58.6201C73.5399 58.6201 73.2999 58.5501 73.1099 58.4101C72.9599 58.3001 72.8799 58.2001 72.8799 58.0901C72.8799 57.9701 73.1599 57.5701 73.7099 56.8801C74.6299 55.7501 75.9299 54.5301 77.6299 53.2301C78.7099 52.4201 79.8899 51.5601 81.1799 50.6501C80.8399 50.6301 80.6699 50.5401 80.6699 50.3901C80.6699 50.1601 81.1499 49.9901 82.0999 49.8701C83.4299 49.7001 84.7199 49.5701 85.9799 49.4801C87.4099 49.3701 88.4999 49.3201 89.2399 49.3201C90.4199 49.3201 91.0099 49.4501 91.0099 49.7301C91.0099 49.8701 90.8699 49.9801 90.5999 50.0701C90.4899 50.1101 90.3599 50.1301 90.2199 50.1301C90.0999 50.1301 89.9299 50.1201 89.7099 50.1101C89.3699 50.0901 89.0699 50.0801 88.8199 50.0801C88.2799 50.0801 87.3599 50.1301 86.0699 50.2201C85.1599 50.2701 84.3099 50.3601 83.5199 50.4701Z" fill="white"/>
<path d="M88.93 57.1701C88.6 57.4401 88.27 57.6601 87.95 57.8401C87.32 58.2001 86.69 58.3801 86.06 58.3801C85.52 58.3801 85.09 58.2601 84.79 58.0301C84.6 57.8801 84.5 57.7001 84.5 57.4901C84.5 56.9801 84.85 56.4201 85.56 55.8001C86.35 55.1201 87.29 54.5901 88.4 54.2201C89.12 53.9801 89.82 53.8601 90.5 53.8601C90.92 53.8601 91.27 53.9201 91.56 54.0401C91.8 54.1501 91.92 54.2701 91.92 54.4001C91.92 54.5001 91.84 54.6401 91.66 54.8201C91.81 54.9201 91.89 55.0001 91.89 55.0801C91.89 55.1801 91.75 55.3301 91.47 55.5601C91.18 55.7801 90.89 56.0801 90.59 56.4501C90.28 56.8501 90.12 57.1601 90.12 57.4001C90.12 57.5901 90.25 57.7501 90.5 57.8801C90.57 57.9101 90.78 57.9701 91.12 58.0401C91.37 58.1001 91.5 58.1901 91.5 58.3301C91.5 58.4201 91.43 58.4901 91.29 58.5401C91.14 58.6001 90.96 58.6301 90.76 58.6301C90.22 58.6301 89.75 58.5201 89.36 58.3001C89.04 58.1201 88.88 57.9001 88.88 57.6301C88.87 57.5401 88.89 57.3801 88.93 57.1701ZM90.81 54.9101C90.69 54.8101 90.56 54.7301 90.42 54.6901C90.28 54.6401 90.13 54.6201 89.97 54.6201C89.2 54.6201 88.38 54.9301 87.48 55.5401C86.49 56.2001 86 56.7701 86 57.2401C86 57.3501 86.05 57.4401 86.14 57.5001C86.24 57.5601 86.38 57.5901 86.57 57.5901C87.05 57.5901 87.62 57.3601 88.26 56.8901C88.62 56.6301 89.07 56.2501 89.6 55.7501C89.95 55.4201 90.21 55.2101 90.37 55.1001C90.46 55.0501 90.6 54.9801 90.81 54.9101Z" fill="white"/>
<path d="M99.4203 53.74C100.04 53.74 100.51 53.79 100.82 53.89C101.13 53.99 101.29 54.15 101.29 54.35C101.29 54.62 101.07 54.88 100.63 55.14C100.21 55.38 99.5703 55.57 98.7303 55.72C98.2703 55.8 97.8803 55.84 97.5703 55.84C97.1503 55.84 96.9403 55.75 96.9403 55.59C96.9403 55.47 97.0603 55.39 97.3003 55.33C97.3603 55.32 97.7003 55.28 98.3303 55.21C98.7003 55.17 99.0403 55.09 99.3603 54.97C99.6303 54.87 99.7703 54.75 99.7703 54.63C99.7703 54.53 99.7103 54.46 99.5903 54.42C99.4703 54.37 99.2903 54.35 99.0503 54.35C98.4703 54.35 97.8203 54.46 97.1203 54.67C96.3103 54.91 95.9003 55.2 95.9003 55.54C95.9003 55.78 96.1703 56.08 96.7003 56.43C97.2903 56.82 97.5903 57.15 97.5903 57.42C97.5903 57.82 97.2003 58.14 96.4103 58.37C95.9303 58.51 95.3803 58.58 94.7603 58.58C93.7903 58.58 93.0603 58.42 92.5603 58.11C92.2103 57.88 92.0303 57.62 92.0303 57.31C92.0303 56.95 92.2303 56.65 92.6303 56.41C92.8903 56.25 93.1603 56.17 93.4503 56.17C93.7003 56.17 93.8303 56.22 93.8303 56.31C93.8303 56.35 93.7803 56.4 93.6903 56.48C93.4603 56.68 93.3403 56.91 93.3403 57.18C93.3403 57.41 93.5203 57.6 93.8703 57.75C94.1803 57.89 94.5403 57.96 94.9403 57.96C95.3303 57.96 95.6403 57.9 95.8603 57.78C96.0403 57.68 96.1303 57.55 96.1303 57.39C96.1303 57.2 95.8903 56.95 95.4103 56.64C94.7503 56.22 94.4103 55.83 94.4103 55.49C94.4103 55.03 94.9603 54.63 96.0603 54.27C97.1003 53.91 98.2303 53.74 99.4203 53.74Z" fill="white"/>
<path d="M105.88 53.87C105.23 54.33 104.62 54.85 104.07 55.43C103.27 56.25 102.88 56.86 102.88 57.26C102.88 57.38 102.93 57.46 103.04 57.52C103.15 57.58 103.3 57.61 103.52 57.61C104.02 57.61 104.63 57.39 105.35 56.96C105.8 56.69 106.2 56.43 106.56 56.16C106.75 56.01 106.96 55.93 107.18 55.93C107.31 55.93 107.42 55.95 107.51 55.99C107.59 56.03 107.63 56.07 107.63 56.11C107.63 56.28 107.14 56.66 106.16 57.25C104.99 57.96 103.93 58.31 102.96 58.31C102.45 58.31 102.02 58.2 101.68 57.99C101.47 57.85 101.36 57.66 101.36 57.4C101.36 56.84 101.71 56.2 102.42 55.46C102.59 55.28 103.06 54.83 103.84 54.13C103.57 54.16 103.36 54.18 103.22 54.18C103.01 54.18 102.82 54.16 102.66 54.11C102.44 54.05 102.33 53.97 102.33 53.87C102.33 53.76 102.48 53.66 102.77 53.59C102.85 53.57 103.22 53.54 103.89 53.5C104.13 53.48 104.48 53.44 104.95 53.37C105.3 53.08 105.88 52.69 106.67 52.19C107.11 51.91 107.42 51.74 107.59 51.65C107.83 51.54 108.04 51.48 108.22 51.48C108.35 51.48 108.48 51.51 108.61 51.58C108.73 51.64 108.79 51.7 108.79 51.76C108.79 51.88 108.51 52.12 107.94 52.47C107.57 52.7 107.29 52.89 107.11 53.03C108.23 52.89 109.03 52.82 109.51 52.82C110.06 52.82 110.34 52.93 110.34 53.14C110.34 53.25 110.24 53.32 110.05 53.37C109.95 53.4 109.69 53.42 109.26 53.44C109.09 53.43 108.33 53.52 106.98 53.7C106.6 53.77 106.24 53.82 105.88 53.87Z" fill="white"/>
<path d="M125.65 53.6701C125.82 54.3401 125.96 54.8101 126.07 55.1001C126.19 55.4201 126.44 55.9501 126.83 56.7001C127.87 56.0001 128.49 55.3901 128.7 54.8701C128.44 54.8601 128.27 54.8501 128.19 54.8501C127.64 54.8401 127.28 54.8101 127.12 54.7601C126.92 54.7001 126.82 54.6001 126.82 54.4801C126.82 54.3701 126.89 54.2801 127.02 54.2101C127.18 54.1301 127.39 54.0901 127.65 54.0901C127.74 54.0901 127.99 54.1001 128.39 54.1101C128.47 54.1101 128.55 54.1201 128.62 54.1201C129.34 54.1201 130.52 54.0601 132.15 53.9501C132.68 53.9101 133.21 53.8901 133.73 53.8901C134.69 53.8901 135.16 54.0401 135.16 54.3401C135.16 54.5401 134.98 54.6401 134.62 54.6401C134.45 54.6401 134.17 54.6201 133.77 54.5801C133.57 54.5601 133.34 54.5501 133.09 54.5501C132.59 54.5501 131.54 54.6201 129.95 54.7701C129.78 55.1601 129.46 55.6101 128.98 56.1101C128.45 56.6601 127.9 57.0701 127.35 57.3601C127.65 57.6001 127.91 57.7801 128.12 57.8801C128.55 58.1001 129.12 58.2101 129.83 58.2101C130.17 58.2101 130.52 58.1901 130.89 58.1501C131.29 58.1101 131.6 58.0901 131.83 58.0901C132.2 58.0901 132.39 58.1701 132.39 58.3401C132.39 58.4901 132.16 58.6201 131.7 58.7301C131.02 58.8901 130.27 58.9601 129.45 58.9601C128.12 58.9601 127.02 58.6401 126.15 58.0001C124.81 58.5801 123.52 58.8701 122.27 58.8701C120.85 58.8701 119.72 58.6001 118.89 58.0701C118.32 57.7101 118.03 57.2701 118.03 56.7501C118.03 56.1001 118.45 55.5001 119.3 54.9501C120.18 54.3901 121.75 53.8901 124.02 53.4401C123.94 53.1401 123.9 52.8801 123.9 52.6601C123.9 52.1601 124.06 51.7201 124.37 51.3401C124.66 50.9801 125.16 50.6701 125.88 50.4201C126.53 50.1901 127.24 50.0801 127.99 50.0801C128.61 50.0801 129.13 50.1801 129.54 50.3801C129.98 50.5901 130.2 50.8401 130.2 51.1401C130.2 51.5401 129.89 51.9501 129.28 52.3701C128.82 52.6801 128 53.0001 126.82 53.3301C126.67 53.3901 126.28 53.5001 125.65 53.6701ZM124.11 54.0201C123.21 54.2101 122.44 54.4401 121.82 54.6901C120.43 55.2601 119.74 55.8701 119.74 56.5401C119.74 56.9401 119.98 57.2901 120.45 57.5701C120.95 57.8801 121.68 58.0301 122.62 58.0301C123.6 58.0301 124.59 57.8001 125.59 57.3301C125.22 56.9201 124.89 56.3601 124.61 55.6601C124.41 55.0201 124.25 54.4701 124.11 54.0201ZM125.53 53.1401C126.33 52.9301 126.97 52.7201 127.45 52.5101C128.22 52.1601 128.61 51.8101 128.61 51.4801C128.61 51.3101 128.51 51.1701 128.31 51.0501C128.12 50.9301 127.88 50.8801 127.59 50.8801C126.98 50.8801 126.44 51.0401 125.99 51.3701C125.64 51.6301 125.46 52.0401 125.46 52.6201C125.45 52.7101 125.47 52.8901 125.53 53.1401Z" fill="white"/>
<path d="M150.07 53.21L150.67 53.16C152.89 52.97 154.44 52.87 155.32 52.87C155.95 52.87 156.27 52.99 156.27 53.22C156.27 53.37 156.14 53.47 155.89 53.52C155.72 53.56 155.43 53.58 155.01 53.59C152.4 53.66 150.42 53.8 149.06 54.01C148.53 54.37 147.75 55.05 146.72 56.04C146.13 56.62 145.66 57.15 145.33 57.64C145.56 57.6 145.79 57.57 146.01 57.53C147.5 57.3 148.6 57.15 149.3 57.08C150.24 57 151.12 56.96 151.94 56.96C152.48 56.96 152.89 56.99 153.15 57.05C153.38 57.1 153.5 57.2 153.5 57.34C153.5 57.48 153.36 57.58 153.08 57.62C152.95 57.64 152.64 57.65 152.15 57.65C149.48 57.71 147.11 58.01 145.03 58.54C144.76 58.61 144.53 58.64 144.34 58.64C144.06 58.64 143.81 58.57 143.58 58.44C143.39 58.33 143.29 58.22 143.29 58.1C143.29 57.98 143.61 57.56 144.24 56.83C145.2 55.72 146.5 54.51 148.15 53.19C148.64 52.79 149.58 52.12 150.96 51.17C151.27 50.95 151.57 50.73 151.87 50.52C151.47 50.47 151.27 50.35 151.27 50.15C151.27 50 151.43 49.9 151.75 49.83C152.27 49.72 153.28 49.61 154.77 49.51C156.99 49.35 158.88 49.28 160.43 49.28C161.31 49.28 161.74 49.39 161.74 49.6C161.74 49.75 161.59 49.87 161.29 49.97C161.14 50.02 160.9 50.05 160.57 50.05C160.55 50.05 160.43 50.05 160.22 50.04C160.07 50.04 159.9 50.04 159.72 50.04C159 50.04 157.95 50.07 156.58 50.14C155.39 50.2 154.37 50.29 153.52 50.4C153.62 50.47 153.67 50.52 153.67 50.57C153.67 50.65 153.43 50.83 152.96 51.11L152.24 51.62C151.19 52.34 150.47 52.86 150.07 53.21Z" fill="white"/>
<path d="M159.36 57.1701C159.03 57.4401 158.7 57.6601 158.38 57.8401C157.75 58.2001 157.12 58.3801 156.49 58.3801C155.95 58.3801 155.52 58.2601 155.22 58.0301C155.03 57.8801 154.93 57.7001 154.93 57.4901C154.93 56.9801 155.28 56.4201 155.99 55.8001C156.77 55.1201 157.72 54.5901 158.83 54.2201C159.55 53.9801 160.25 53.8601 160.93 53.8601C161.35 53.8601 161.71 53.9201 161.99 54.0401C162.23 54.1501 162.35 54.2701 162.35 54.4001C162.35 54.5001 162.27 54.6401 162.09 54.8201C162.24 54.9201 162.32 55.0001 162.32 55.0801C162.32 55.1801 162.18 55.3301 161.9 55.5601C161.61 55.7801 161.32 56.0801 161.02 56.4501C160.71 56.8501 160.55 57.1601 160.55 57.4001C160.55 57.5901 160.68 57.7501 160.93 57.8801C161 57.9101 161.21 57.9701 161.55 58.0401C161.8 58.1001 161.93 58.1901 161.93 58.3301C161.93 58.4201 161.86 58.4901 161.72 58.5401C161.57 58.6001 161.39 58.6301 161.19 58.6301C160.65 58.6301 160.18 58.5201 159.79 58.3001C159.47 58.1201 159.31 57.9001 159.31 57.6301C159.3 57.5401 159.32 57.3801 159.36 57.1701ZM161.25 54.9101C161.13 54.8101 161 54.7301 160.86 54.6901C160.72 54.6401 160.57 54.6201 160.41 54.6201C159.65 54.6201 158.82 54.9301 157.92 55.5401C156.93 56.2101 156.44 56.7901 156.44 57.2501C156.44 57.3601 156.49 57.4501 156.58 57.5101C156.67 57.5701 156.82 57.6001 157.01 57.6001C157.49 57.6001 158.06 57.3701 158.7 56.9001C159.06 56.6401 159.51 56.2601 160.04 55.7601C160.39 55.4301 160.65 55.2201 160.81 55.1101C160.89 55.0501 161.04 54.9801 161.25 54.9101Z" fill="white"/>
<path d="M169.85 53.74C170.47 53.74 170.94 53.79 171.25 53.89C171.56 53.99 171.72 54.15 171.72 54.35C171.72 54.62 171.5 54.88 171.06 55.14C170.64 55.38 170 55.57 169.16 55.72C168.7 55.8 168.31 55.84 168 55.84C167.58 55.84 167.37 55.75 167.37 55.59C167.37 55.47 167.49 55.39 167.73 55.33C167.79 55.32 168.13 55.28 168.76 55.21C169.13 55.17 169.47 55.09 169.79 54.97C170.06 54.87 170.2 54.75 170.2 54.63C170.2 54.53 170.14 54.46 170.02 54.42C169.9 54.37 169.72 54.35 169.48 54.35C168.9 54.35 168.25 54.46 167.55 54.67C166.73 54.91 166.33 55.2 166.33 55.54C166.33 55.78 166.6 56.08 167.13 56.43C167.72 56.82 168.02 57.15 168.02 57.42C168.02 57.82 167.63 58.14 166.84 58.37C166.36 58.51 165.81 58.58 165.19 58.58C164.22 58.58 163.49 58.42 162.99 58.11C162.64 57.88 162.46 57.62 162.46 57.31C162.46 56.95 162.66 56.65 163.06 56.41C163.32 56.25 163.59 56.17 163.88 56.17C164.13 56.17 164.26 56.22 164.26 56.31C164.26 56.35 164.21 56.4 164.12 56.48C163.89 56.68 163.77 56.91 163.77 57.18C163.77 57.41 163.95 57.6 164.3 57.75C164.61 57.89 164.97 57.96 165.37 57.96C165.76 57.96 166.07 57.9 166.29 57.78C166.47 57.68 166.56 57.55 166.56 57.39C166.56 57.2 166.32 56.95 165.84 56.64C165.18 56.22 164.84 55.83 164.84 55.49C164.84 55.03 165.39 54.63 166.49 54.27C167.54 53.91 168.66 53.74 169.85 53.74Z" fill="white"/>
<path d="M176.21 56.38C175.31 56.86 174.6 57.22 174.07 57.45C173.01 57.91 172.13 58.14 171.43 58.14C171.09 58.14 170.82 58.08 170.61 57.97C170.46 57.88 170.38 57.76 170.38 57.63C170.38 57.13 171.02 56.47 172.31 55.65C173.62 54.81 174.56 54.4 175.15 54.4C175.31 54.4 175.45 54.43 175.57 54.5C175.68 54.55 175.74 54.61 175.74 54.68C175.74 54.78 175.68 54.87 175.57 54.94C175.45 55.02 175.12 55.18 174.58 55.45C174.01 55.72 173.48 56.01 173 56.33C172.45 56.69 172.17 56.95 172.17 57.12C172.17 57.22 172.27 57.26 172.47 57.26C172.87 57.26 173.63 57.01 174.73 56.51C175.42 56.19 175.97 55.93 176.36 55.71C176.44 55.66 176.79 55.45 177.42 55.06C177.98 54.72 178.33 54.51 178.46 54.45C178.76 54.29 179.04 54.21 179.3 54.21C179.46 54.21 179.61 54.24 179.74 54.31C179.86 54.37 179.92 54.44 179.92 54.52C179.92 54.65 179.72 54.88 179.32 55.19C178.84 55.57 178.39 55.93 177.99 56.26C177.36 56.77 176.87 57.23 176.53 57.64C177.17 57.47 177.76 57.26 178.3 57.01C179.21 56.6 179.76 56.29 179.96 56.09C180.15 55.91 180.35 55.81 180.55 55.81C180.83 55.81 180.97 55.87 180.97 56C180.97 56.24 180.52 56.61 179.61 57.09C178.52 57.67 177.19 58.16 175.59 58.56C174.75 59.49 173.94 60.26 173.19 60.87C171.78 62 170.33 62.56 168.83 62.56C168.22 62.56 167.72 62.45 167.35 62.24C167.06 62.07 166.91 61.87 166.91 61.61C166.91 60.89 168.01 60.16 170.21 59.41C170.85 59.19 171.81 58.91 173.08 58.58C173.59 58.45 174 58.34 174.29 58.26C174.47 58.05 174.75 57.77 175.12 57.42C175.53 57.02 175.89 56.68 176.21 56.38ZM173.43 59.09C172.36 59.34 171.27 59.69 170.16 60.15C169.03 60.62 168.47 61.06 168.47 61.47C168.47 61.56 168.53 61.63 168.64 61.69C168.79 61.77 168.99 61.81 169.23 61.81C169.99 61.81 170.82 61.45 171.74 60.73C171.89 60.61 172.3 60.21 172.98 59.54C173.1 59.4 173.26 59.25 173.43 59.09Z" fill="white"/>
</svg>
