<?xml version="1.0" encoding="utf-8"?>
<!-- Generator: Adobe Illustrator 24.1.2, SVG Export Plug-In . SVG Version: 6.00 Build 0)  -->
<svg version="1.1" id="PTZ_Logo_Black" xmlns="http://www.w3.org/2000/svg" xmlns:xlink="http://www.w3.org/1999/xlink" x="0px"
	 y="0px" viewBox="0 0 1707.7 588.7" style="enable-background:new 0 0 1707.7 588.7;" xml:space="preserve">
<style type="text/css">
	.st0{opacity:0.5;enable-background:new    ;}
	.st1{fill:#333333;}
	.st2{fill:#FF3030;}
	.st3{fill:#FFFFFF;}
	.st4{opacity:0.96;fill:#FFFFFF;enable-background:new    ;}
	.st5{enable-background:new    ;}
</style>
<path class="st0" d="M-3,690"/>
<g>
	<path d="M119,135C53.3,135,0,188.3,0,254s53.3,119,119,119s119-53.3,119-119l0,0c0.1-65.7-53.1-118.9-118.8-119
		C119.1,135,119.1,135,119,135z M119,313.5c-32.9,0-59.5-26.6-59.5-59.5s26.6-59.5,59.5-59.5s59.5,26.6,59.5,59.5v0.1
		C178.4,286.8,151.8,313.4,119,313.5z"/>
	<path d="M489.6,242.7c-6.2-65.4-64.3-113.4-129.7-107.2c-65.4,6.2-113.4,64.3-107.2,129.7S317,378.6,382.4,372.4
		c56.8-5.4,101.9-50.4,107.2-107.2c0.3-3.7,0.5-7.4,0.5-11.2S490,246.4,489.6,242.7z M371.2,313.5c-32.9,0-59.5-26.6-59.5-59.5
		s26.6-59.5,59.5-59.5s59.5,26.6,59.5,59.5c0,2.7-0.2,5.3-0.5,7.9C426.2,291.4,401,313.4,371.2,313.5z"/>
	<path class="st1" d="M1034.6,135.2c-7.3,0-13.2-2-13.2-4.4c0-70.8-15.5-114.7-92.6-114.7c-78.3,0-92.6,38.6-92.6,114.7
		c0,2.4-5.9,4.4-13.2,4.4s-13.2-2-13.2-4.4c0-82,18.4-123.6,118.9-123.6c109.8,0,118.9,58.5,118.9,123.6
		C1047.7,133.2,1041.8,135.2,1034.6,135.2z"/>
	<path class="st2" d="M1236.5,127.1c3.2-16.8-8.6-32.5-24.3-32.5H645.6c-15.8,0-27.6,15.8-24.3,32.5l52.4,271.5
		C676,411,686.2,420,698,420h461.8c11.8,0,21.9-9,24.3-21.5L1236.5,127.1z M843.1,110c0,5.6-8.9,10.1-19.9,10.1s-19.9-4.5-19.9-10.1
		s8.9-10.1,19.9-10.1S843.1,104.4,843.1,110z M1054.5,110c0,5.6-8.9,10.1-19.9,10.1s-19.9-4.5-19.9-10.1s8.9-10.1,19.9-10.1
		S1054.5,104.4,1054.5,110z"/>
	<path class="st1" d="M1036.6,120.6c-7.3,0-13.2-1.9-13.2-4.2c0-66.8-15.5-108.1-92.6-108.1c-78.3,0-92.6,36.4-92.6,108.1
		c0,2.3-5.9,4.2-13.2,4.2s-13.2-1.9-13.2-4.2C812,39.2,830.4,0,930.9,0c109.8,0,118.9,55.1,118.9,116.5
		C1049.8,118.8,1043.9,120.6,1036.6,120.6z"/>
	<path d="M59.5,256.8v136.8c0,32.8-26.6,59.5-59.5,59.5l0,0V254c0-19.2,4.6-38.1,13.5-55.1C40.4,205.2,59.5,229.2,59.5,256.8z"/>
	<path d="M489.6,242.7V382c-15.5,0.1-30.5-5.4-42.1-15.7c-4.2-3.8-7.9-8.2-10.7-13.2c-4.4-7.5-6.7-16-6.7-24.7V205.3
		c0-16,7.8-30.4,20.2-40.2C472.8,185.1,486.8,212.8,489.6,242.7z"/>
	<path d="M1334.7,135c-65.7,0-119,53.3-119,119s53.3,119,119,119s119-53.3,119-119l0,0C1453.7,188.3,1400.4,135,1334.7,135z
		 M1334.7,313.5c-32.9,0-59.5-26.6-59.5-59.5s26.6-59.5,59.5-59.5s59.5,26.6,59.5,59.5l0,0C1394.2,286.8,1367.5,313.4,1334.7,313.5z
		"/>
	<path d="M1648.1,258.1c0.1-1.4,0.1-2.7,0.1-4.1s0-2.8-0.1-4.1c-0.2-2.1-0.4-4.3-0.8-6.4l0,0c-5.9-32.3-36.9-53.8-69.2-47.9
		c-30.5,5.5-51.6,33.5-48.5,64.4v68.5c0,8.6-2.3,17.1-6.6,24.6c-30.7-20.4-50.3-53.9-52.8-90.7c-0.2-2.8-0.3-5.6-0.3-8.4
		s0.1-5.6,0.3-8.4c4.7-65.6,61.7-114.9,127.2-110.2c44.1,3.2,82.8,30.5,100.5,71l0,0v0.1c1.3,3.1,2.5,6.2,3.6,9.4v0.1v0.1
		c1.2,3.7,2.3,7.5,3.2,11.3l0,0l0,0c0.8,3.3,1.4,6.7,1.8,10.1c0.5,3.5,0.8,7.1,1,10.7c0.1,1.9,0.1,3.8,0.1,5.8s-0.1,3.9-0.1,5.8
		c-0.2,3.6-0.5,7.2-1,10.7c-4.9,35-25,65.9-55,84.6L1648.1,258.1z"/>
	<path class="st3" d="M887.5,242.7c-6.2-65.4-64.3-113.4-129.7-107.2c-65.4,6.2-113.4,64.3-107.2,129.7s64.3,113.4,129.7,107.2
		c56.8-5.4,101.9-50.4,107.2-107.2c0.4-3.7,0.5-7.4,0.5-11.2S887.9,246.4,887.5,242.7z M769.1,313.5c-32.9,0-59.5-26.6-59.5-59.5
		s26.6-59.5,59.5-59.5s59.5,26.6,59.5,59.5c0,2.7-0.2,5.3-0.5,7.9C824.1,291.4,798.9,313.4,769.1,313.5z"/>
	<path class="st3" d="M887.5,242.7V382c-15.5,0.1-30.5-5.4-42.1-15.7c-4.2-3.8-7.9-8.2-10.7-13.2c-4.4-7.5-6.7-16-6.7-24.7V205.3
		c0-16,7.8-30.4,20.2-40.2C870.7,185.1,884.7,212.8,887.5,242.7z"/>
	<path d="M1529.5,205.3v123.1c0,8.6-2.3,17.1-6.6,24.6c-2.9,5-6.5,9.4-10.8,13.3c-11.6,10.2-26.6,15.8-42.1,15.7V245.6
		c2.1-30.9,16.3-59.7,39.4-80.3C1521.8,175.1,1529.5,189.4,1529.5,205.3z"/>
	<path d="M1701.5,216L1701.5,216l3.2,11.4l0,0l0,0l2.8,20.7V382c-16.4,0-31.3-4.6-42.1-12c-5.6-3.7-10.3-8.7-13.7-14.6l-0.3-0.5
		c-2.3-4.3-3.5-9-3.5-13.9v-94.1c0-1.2,0.1-2.3,0.2-3.5l0,0c2.3-18.7,23-33.9,49.6-36.9L1701.5,216z"/>
	<path class="st3" d="M1140.6,197.5c9-15.2,4.1-34.8-11.1-43.9c-3.8-2.3-8.1-3.8-12.6-4.3h-7.4L939,148.9h-0.3
		c-0.1,31.1,25.1,56.4,56.1,56.4l0,0l68.4,0.2l29.2,0.1l31.9,0.1h0.2c3.4,0,6.9-0.3,10.2-0.9c0.1,0,0.2,0,0.3-0.1L1140.6,197.5z"/>
	<path class="st3" d="M1004.3,372.6l1-1.2c-17.3,3.5-34.2-7.7-37.7-25.1c-1.5-7.4-0.3-15.2,3.4-21.8c8.8-5.3,18.8-8.2,29.1-8.2h20.4
		l27.5-0.1l81.6-0.2h0.2c31,0,56.1,25.1,56.2,56.1L1004.3,372.6z"/>
	<path class="st3" d="M1145.1,181.1c0,5.8-1.5,11.4-4.5,16.4l-4.7,6.1l0,0l-0.8,1.1L1048,317.2l-17,22l-25.7,33.2
		c-17.3,3.5-34.2-7.7-37.7-25.1c-1.5-7.4-0.3-15.2,3.4-21.8l-1.1,0.7l93.4-120.7l17.9-23.1l4.3-5.5c8.2-10.7,18-20,29.2-27.5
		l0.3-0.2c0.7,0,1.4,0.1,2.1,0.2C1133,151.3,1145.1,164.9,1145.1,181.1z"/>
	<path class="st3" d="M1030,341c-0.5,17.7-15.2,31.6-32.9,31.1s-31.6-15.2-31.1-32.9s15.2-31.6,32.9-31.1
		c17,0.5,30.6,14.1,31.1,31.1C1030,339.8,1030,340.4,1030,341z"/>
	<path class="st4" d="M1145.1,181.1c0,5.8-1.5,11.4-4.5,16.4c-1.3,2.2-2.9,4.2-4.7,6.1c-0.4,0.4-0.8,0.8-1.2,1.1
		c-13,11.9-33.3,11.1-45.2-2c-5.1-5.6-8.1-12.8-8.4-20.3c0-0.4,0-0.9,0-1.3c0-16.3,12.2-29.9,28.4-31.8c1.2-0.1,2.4-0.2,3.6-0.2
		c0.6,0,1.2,0,1.7,0s1.4,0.1,2.1,0.2C1133,151.3,1145.1,164.9,1145.1,181.1z"/>
	<path d="M596.2,137.7v243.8c-2.5,0-5.1-0.1-7.6-0.5l0,0c-12.9-1.5-25-7.2-34.5-16.2c-11.1-10.4-17.4-24.9-17.4-40.1V194.4
		c0-0.4,0-0.7,0-1C537.3,162.5,563.7,137.7,596.2,137.7z"/>
	<path d="M596.1,349c0-0.6,0-1.1,0.1-1.7v3.3C596.1,350.1,596.1,349.6,596.1,349z"/>
	<path class="st0" d="M639,366.4c-1,1-2.1,2-3.3,2.8C636.8,368.3,637.9,367.4,639,366.4z"/>
	<path d="M630.1,237.7L630.1,237.7l-127.7,0.5l0,0c-0.1-24.7,13.1-44.8,29.5-44.8l68.3-0.3C616.6,193.1,630,213,630.1,237.7z"/>
	<path d="M633.1,351.6L633.1,351.6L633.1,351.6l-81.6-44.8l0,0c-11.9,21.6-13,43.8-2.6,49.6l43.6,24
		C603,386.1,621.2,373.3,633.1,351.6z"/>
	<path class="st3" d="M908.4,227.7v8.8c0,2.4,1.1,4.6,3,6l37.7,28.2c1.3,1,1.5,2.8,0.6,4c-0.2,0.2-0.4,0.4-0.6,0.6l-37.7,28.2
		c-1.9,1.4-3,3.6-3,6v8.8c0.1,1.7,1.4,3,3.1,2.9c0.6,0,1.1-0.2,1.6-0.5l59.8-44.7c1.6-1.1,1.9-3.3,0.7-4.9c-0.2-0.3-0.5-0.5-0.7-0.7
		l-59.8-44.7c-1.3-1-3.1-0.7-4.1,0.6C908.6,226.4,908.4,227,908.4,227.7z"/>
	<path class="st3" d="M913.1,259.9l13.6,10.1c1.6,1.2,1.9,3.4,0.7,4.9c-0.2,0.3-0.4,0.5-0.7,0.7l-13.5,10.1
		c-1.4,0.9-3.2,0.6-4.2-0.8c-0.3-0.5-0.5-1-0.5-1.6v-21.1c0-1.6,1.3-2.9,2.9-2.9C912,259.3,912.6,259.5,913.1,259.9z"/>
	<g class="st5">
		<path class="st2" d="M311.3,527.4c1.2-8.4-4.1-14.5-15.8-18.4l-15-4.6l-4.9-1.7c-14.9-5.4-21.8-13.3-20.7-23.8
			c0.5-5.2,2.6-9.7,6.5-13.6c3.8-3.9,8.9-6.9,15.1-9c6.3-2.1,12.9-3.1,20-3c6.8,0.1,12.8,1.5,18.1,4c5.3,2.5,9.3,5.9,12,10.3
			s3.7,9.3,3.1,14.7H320c0.7-6.6-1.1-11.9-5.5-15.9c-4.4-4-10.6-6-18.5-6.2c-8.3-0.1-15.4,1.5-21.3,4.8c-5.9,3.3-9.3,7.9-10.1,13.6
			c-0.7,4.6,0.9,8.5,4.8,11.7c3.9,3.2,10.6,6,20.1,8.4c12.2,3.3,20.6,7.2,25.4,11.8c4.7,4.6,6.8,10.1,6.2,16.5
			c-0.6,5.3-2.8,10-6.6,13.9s-8.9,6.9-15.3,9c-6.4,2.1-13.3,3.1-20.6,2.9c-7.3,0-13.9-1.3-19.7-3.8c-5.9-2.5-10.2-5.9-13.1-10.2
			s-4.1-9.3-3.5-15h9.6c-0.8,6.8,1.3,12.2,6.4,16.2c5.1,4,12,6,20.8,6.1c8.8,0.1,16.2-1.6,22.2-5.1
			C307.1,537.7,310.5,533.1,311.3,527.4z"/>
		<path class="st2" d="M358,535.1v5.7l3.1-6.2l31.1-55h8l8.4,55.2l0.5,6.8l3.2-6.9l28.2-55.1h10l-38.9,72.2h-8l-9.4-57.2l-0.1-4
			l-1.8,4.1l-32.6,57.2h-8l-9.1-72.2l8.8-0.1L358,535.1z"/>
		<path class="st2" d="M463.9,551.7h-9.4l14.9-72.2h9.4L463.9,551.7z M471.9,458.7c0.3-2.9,2.5-4.7,6.8-5.5c2,0.3,3.5,0.9,4.4,1.6
			c0.9,0.8,1.4,2.1,1.7,3.8c-0.5,1.7-1.3,2.9-2.3,3.7c-1,0.8-2.5,1.3-4.5,1.7C473.7,463.6,471.7,461.8,471.9,458.7z"/>
		<path class="st2" d="M495.7,551.7l13.5-65.6h-13.7l1.4-6.5h13.6l1.7-9.8c1.3-7.1,4.5-12.5,9.6-16.4c5.1-3.9,11.4-5.8,18.9-5.7
			c3,0.1,6.5,0.5,10.3,1.3l-1.7,6.6c-2.9-0.7-5.7-1-8.4-1c-5.2,0-9.6,1.4-13,4.3c-3.4,2.9-5.6,6.9-6.5,12.1l-1.5,8.5h19.8l-1.4,6.5
			h-19.6l-13.5,65.6H495.7z"/>
		<path class="st2" d="M574.7,461.1l-3.8,18.5H588l-1.3,6.5h-17.1l-9.4,48.2l-0.2,4.1c0,4.8,2.6,7.3,7.9,7.5c1.6,0,4.2-0.1,7.6-0.5
			l-0.4,6.5c-3.1,0.8-6.2,1.1-9.4,1c-5.5-0.1-9.5-1.7-12-4.9s-3.4-7.8-2.8-13.8l9.4-48.1H545l1.4-6.5h15.1l3.9-18.5H574.7z"/>
		<path class="st2" d="M587.8,569.9l-5.3-3.7c6-5.9,9.6-11.7,10.8-17.6l1.9-9.5h9.1l-1.7,9.6C600.9,557.2,595.9,564.2,587.8,569.9z"
			/>
	</g>
	<g class="st5">
		<path class="st2" d="M735.1,506.3h-51.8l-9.4,45.4h-9.6l19.9-97.1h69.1l-1.5,6.9h-59.4l-7.8,37.8h51.9L735.1,506.3z"/>
	</g>
	<g class="st5">
		<path class="st2" d="M801.2,551.7c-0.3-1.7-0.3-3.4-0.2-5.1l0.7-5c-3.9,3.6-8.4,6.4-13.5,8.5c-5.1,2-10.5,3-16.4,2.9
			c-7.2-0.1-13-2-17.5-5.8c-4.5-3.8-6.5-8.5-6-14.2c0.4-4.8,2.3-8.9,5.8-12.4c3.4-3.5,8.3-6.2,14.7-8.1c6.3-1.9,13.5-2.9,21.3-2.9
			l17.4,0.1l1.4-8.3c0.6-4.9-0.6-8.9-3.8-11.9c-3.1-3-7.8-4.6-13.9-4.7c-6.2-0.1-11.6,1.2-16.2,3.9c-4.6,2.7-7.5,6.2-8.6,10.6h-9.2
			c1-6.3,4.9-11.5,11.5-15.4c6.6-4,14.4-5.9,23.5-5.8c8.8,0.2,15.5,2.4,20.3,6.7c4.7,4.3,6.7,9.9,5.8,16.8l-7.1,36.3l-0.6,5.8
			c-0.2,2.4,0.1,4.8,0.6,7.1l-0.2,0.8H801.2z M773.4,546.1c5.8,0.2,11.3-1,16.6-3.5c5.3-2.5,9.6-6.1,13.1-10.7l3.2-16l-15-0.1
			c-9.5,0-17.3,1.4-23.4,4.3s-9.4,7-10,12.3c-0.5,3.9,0.7,7.2,3.7,9.7C764.5,544.7,768.4,546,773.4,546.1z"/>
		<path class="st2" d="M886.6,532.9c0.8-6.1-3.6-10.6-13.2-13.3l-13.5-3.4c-12.4-3.6-18.3-9.5-17.6-17.8c0.4-6,3.6-10.9,9.8-14.6
			c6.2-3.8,13.5-5.6,22-5.5c8.3,0.1,15.1,2.1,20.3,6c5.2,3.9,7.6,9.1,7.2,15.6h-9.3c0.3-4.3-1.3-7.8-4.8-10.5
			c-3.5-2.7-8.1-4.1-13.9-4.2c-6,0-11,1.2-15.1,3.6c-4.1,2.4-6.4,5.5-6.9,9.4c-0.8,5.7,3.4,9.8,12.4,12.1l9.8,2.4l5.3,1.5
			c11.9,3.8,17.4,9.9,16.8,18.5c-0.4,5.8-3.4,10.5-8.9,14.2c-5.5,3.7-12.6,5.8-21.2,6.2l-3.2,0.1c-5.7-0.1-10.9-1-15.5-2.8
			c-4.6-1.8-8.2-4.3-10.6-7.6c-2.5-3.2-3.5-7-3.2-11.2l9.4,0.1c0,4.5,1.8,8.1,5.4,10.7c3.6,2.6,8.6,4,15,4.1
			c6.3,0,11.6-1.2,16.1-3.6C883.5,540.3,886,537,886.6,532.9z"/>
		<path class="st2" d="M945.7,461.1l-3.8,18.5H959l-1.3,6.5h-17.1l-9.4,48.2l-0.2,4.1c0,4.8,2.6,7.3,7.9,7.5c1.6,0,4.2-0.1,7.6-0.5
			l-0.4,6.5c-3.1,0.8-6.2,1.1-9.4,1c-5.5-0.1-9.5-1.7-12-4.9s-3.4-7.8-2.8-13.8l9.4-48.1H916l1.4-6.5h15.1l3.9-18.5H945.7z"/>
		<path class="st2" d="M1032.6,498.6l-2.9-4.3c-4.4-6.8-6.2-12.9-5.7-18.4c0.6-6.8,3.6-12.2,8.9-16.5c5.3-4.2,11.9-6.3,19.8-6.2
			c6.7,0.2,12,2,16,5.5c4,3.5,5.8,7.8,5.4,13c-0.7,7.4-6.7,14.4-18,21.1l-11.8,6.9l24.5,30.7c5.9-6.6,9.6-14,11.2-22.2h8.5
			c-1.7,11.1-6.6,20.5-14.6,28.1l12,15.3h-10.4l-7.6-9.6c-10.2,7.5-21,11.1-32.4,10.9c-9.4-0.1-17.1-2.5-22.9-7.1
			c-5.8-4.7-8.4-10.8-7.7-18.4c0.5-4.8,2.8-9.6,6.9-14.1C1015.8,508.8,1022.8,503.9,1032.6,498.6z M1035.7,546.3
			c9,0.1,18.1-3.2,27.2-10l-25-31.3l-0.9-1l-3.9,2.3l-4.1,2.7c-9,6.2-13.9,12.4-14.7,18.5c-0.9,5.4,0.7,9.8,4.8,13.3
			C1023.1,544.4,1028.7,546.2,1035.7,546.3z M1033.4,475.6c-0.7,5.3,1.6,11.5,6.8,18.7l14.2-8.7c6.5-4.3,10-8.9,10.6-13.9
			c0.4-3.3-0.6-6.1-3.1-8.3c-2.5-2.2-5.7-3.3-9.7-3.3c-5-0.1-9.3,1.4-12.7,4.4C1036,467.4,1034,471.1,1033.4,475.6z"/>
		<path class="st2" d="M1211.6,505.2h-51.9l-8.2,39.6h59.8l-1.4,6.9h-69.4l19.9-97.1h69l-1.5,6.9h-59.3l-7.6,36.7h52L1211.6,505.2z"
			/>
		<path class="st2" d="M1281,551.7c-0.3-1.7-0.3-3.4-0.2-5.1l0.7-5c-3.9,3.6-8.4,6.4-13.5,8.5c-5.1,2-10.5,3-16.4,2.9
			c-7.2-0.1-13-2-17.5-5.8c-4.5-3.8-6.5-8.5-6-14.2c0.4-4.8,2.3-8.9,5.8-12.4c3.4-3.5,8.3-6.2,14.7-8.1c6.3-1.9,13.5-2.9,21.3-2.9
			l17.4,0.1l1.4-8.3c0.6-4.9-0.6-8.9-3.8-11.9c-3.1-3-7.8-4.6-13.9-4.7c-6.2-0.1-11.6,1.2-16.2,3.9c-4.6,2.7-7.5,6.2-8.6,10.6h-9.2
			c1-6.3,4.9-11.5,11.5-15.4c6.6-4,14.4-5.9,23.5-5.8c8.8,0.2,15.5,2.4,20.3,6.7c4.7,4.3,6.7,9.9,5.8,16.8l-7.1,36.3l-0.6,5.8
			c-0.2,2.4,0.1,4.8,0.6,7.1l-0.2,0.8H1281z M1253.1,546.1c5.8,0.2,11.3-1,16.6-3.5c5.3-2.5,9.6-6.1,13.1-10.7l3.2-16l-15-0.1
			c-9.5,0-17.3,1.4-23.4,4.3s-9.4,7-10,12.3c-0.5,3.9,0.7,7.2,3.7,9.7C1244.2,544.7,1248.1,546,1253.1,546.1z"/>
		<path class="st2" d="M1366.4,532.9c0.8-6.1-3.6-10.6-13.2-13.3l-13.5-3.4c-12.4-3.6-18.3-9.5-17.6-17.8c0.4-6,3.6-10.9,9.8-14.6
			c6.2-3.8,13.5-5.6,22-5.5c8.3,0.1,15.1,2.1,20.3,6c5.2,3.9,7.6,9.1,7.2,15.6h-9.3c0.3-4.3-1.3-7.8-4.8-10.5
			c-3.5-2.7-8.1-4.1-13.9-4.2c-6,0-11,1.2-15.1,3.6c-4.1,2.4-6.4,5.5-6.9,9.4c-0.8,5.7,3.4,9.8,12.4,12.1l9.8,2.4l5.3,1.5
			c11.9,3.8,17.4,9.9,16.8,18.5c-0.4,5.8-3.4,10.5-8.9,14.2c-5.5,3.7-12.6,5.8-21.2,6.2l-3.2,0.1c-5.7-0.1-10.9-1-15.5-2.8
			c-4.6-1.8-8.2-4.3-10.6-7.6c-2.5-3.2-3.5-7-3.2-11.2l9.4,0.1c0,4.5,1.8,8.1,5.4,10.7c3.6,2.6,8.6,4,15,4.1
			c6.3,0,11.6-1.2,16.1-3.6C1363.2,540.3,1365.8,537,1366.4,532.9z"/>
		<path class="st2" d="M1421,540l36.4-60.4h10.5l-51.9,83.8c-3.8,6.5-7.9,11.1-12.2,13.8s-9,4-14.3,3.9c-2-0.1-4.5-0.4-7.6-1.1
			l0.9-6.5l4.7,0.5c8.8,0.3,15.8-4.1,20.9-13.2l6-10.1l-16.4-71.1h9.8L1421,540z"/>
	</g>
</g>
</svg>
