<svg width="202" height="63" viewBox="0 0 202 63" fill="none" xmlns="http://www.w3.org/2000/svg">
<path d="M124.198 17.01C123.388 17.01 122.728 16.75 122.728 16.44C122.728 7.33 120.998 1.69 112.408 1.69C103.678 1.69 102.088 6.66 102.088 16.44C102.088 16.75 101.428 17.01 100.618 17.01C99.808 17.01 99.1479 16.75 99.1479 16.44C99.1479 5.9 101.198 0.550003 112.398 0.550003C124.638 0.550003 125.658 8.07 125.658 16.44C125.668 16.76 125.008 17.01 124.198 17.01Z" fill="#211112"/>
<path d="M147.418 12.76H112.418H77.418L84.418 46.84H112.418H140.418L147.418 12.76ZM102.848 14.38C102.848 14.96 101.858 15.44 100.628 15.44C99.398 15.44 98.408 14.97 98.408 14.38C98.408 13.8 99.398 13.32 100.628 13.32C101.848 13.32 102.848 13.79 102.848 14.38ZM126.428 14.38C126.428 14.96 125.438 15.44 124.208 15.44C122.978 15.44 121.988 14.97 121.988 14.38C121.988 13.8 122.978 13.32 124.208 13.32C125.428 13.32 126.428 13.79 126.428 14.38Z" fill="#B92328"/>
<path d="M16.3581 20.36C17.5881 19.71 19.0181 19.39 20.6681 19.39C22.5881 19.39 24.3281 19.86 25.8881 20.81C27.4481 21.75 28.6781 23.1 29.5881 24.85C30.4981 26.6 30.9481 28.64 30.9481 30.96C30.9481 33.28 30.4981 35.32 29.5881 37.09C28.6781 38.86 27.4481 40.22 25.8881 41.17C24.3281 42.13 22.5881 42.61 20.6681 42.61C19.0481 42.61 17.6281 42.29 16.3881 41.64C15.1481 40.99 14.1781 40.16 13.4781 39.13V53.04H6.32812V19.71H13.4781V22.9C14.1781 21.85 15.1381 21 16.3581 20.36ZM22.1881 26.89C21.1981 25.91 19.9781 25.41 18.5281 25.41C17.1081 25.41 15.8981 25.91 14.9081 26.91C13.9181 27.91 13.4281 29.27 13.4281 30.99C13.4281 32.71 13.9181 34.08 14.9081 35.07C15.8981 36.07 17.0981 36.57 18.5281 36.57C19.9481 36.57 21.1581 36.06 22.1681 35.05C23.1681 34.04 23.6681 32.67 23.6681 30.94C23.6681 29.21 23.1781 27.87 22.1881 26.89Z" fill="black"/>
<path d="M34.6483 24.84C35.5583 23.09 36.7883 21.74 38.3483 20.8C39.9083 19.86 41.6483 19.38 43.5683 19.38C45.2083 19.38 46.6583 19.7 47.8983 20.35C49.1383 21 50.0883 21.85 50.7583 22.9V19.71H57.9083V42.28H50.7583V39.08C50.0583 40.13 49.0883 40.98 47.8483 41.63C46.6083 42.28 45.1683 42.6 43.5183 42.6C41.6183 42.6 39.8983 42.12 38.3383 41.16C36.7783 40.2 35.5483 38.84 34.6383 37.08C33.7283 35.32 33.2783 33.27 33.2783 30.95C33.2883 28.63 33.7383 26.6 34.6483 24.84ZM49.2783 26.91C48.2883 25.91 47.0883 25.41 45.6583 25.41C44.2383 25.41 43.0283 25.9 42.0383 26.89C41.0483 27.87 40.5583 29.23 40.5583 30.95C40.5583 32.67 41.0483 34.04 42.0383 35.06C43.0283 36.07 44.2283 36.58 45.6583 36.58C47.0783 36.58 48.2883 36.08 49.2783 35.08C50.2683 34.08 50.7583 32.72 50.7583 31C50.7583 29.28 50.2683 27.91 49.2783 26.91Z" fill="black"/>
<path d="M76.0882 36.41V42.27H72.4582C69.8682 42.27 67.8482 41.66 66.3982 40.43C64.9482 39.2 64.2282 37.2 64.2282 34.43V25.45H61.3882V19.71H64.2282V14.21H71.3782V19.71H76.0582V25.45H71.3782V34.51C71.3782 35.18 71.5482 35.67 71.8782 35.97C72.2082 36.27 72.7682 36.41 73.5482 36.41H76.0882Z" fill="black"/>
<path d="M79.9979 24.84C80.9079 23.09 82.1379 21.74 83.6979 20.8C85.2579 19.86 86.9979 19.38 88.9179 19.38C90.5579 19.38 92.0079 19.7 93.2479 20.35C94.4879 21 95.4379 21.85 96.1079 22.9V19.71H103.258V42.28H96.1079V39.08C95.4079 40.13 94.4379 40.98 93.1979 41.63C91.9579 42.28 90.5179 42.6 88.8679 42.6C86.9679 42.6 85.2479 42.12 83.6879 41.16C82.1279 40.2 80.8979 38.84 79.9879 37.08C79.0779 35.32 78.6279 33.27 78.6279 30.95C78.6379 28.63 79.0979 26.6 79.9979 24.84ZM94.6279 26.91C93.6379 25.91 92.4379 25.41 91.0079 25.41C89.5879 25.41 88.3779 25.9 87.3879 26.89C86.3979 27.87 85.9079 29.23 85.9079 30.95C85.9079 32.67 86.3979 34.04 87.3879 35.06C88.3779 36.07 89.5779 36.58 91.0079 36.58C92.4279 36.58 93.6379 36.08 94.6279 35.08C95.6179 34.08 96.1079 32.72 96.1079 31C96.1079 29.28 95.6179 27.91 94.6279 26.91Z" fill="white"/>
<path d="M132.858 36.57H142.978V42.27H124.878V36.77L134.578 25.41H124.968V19.71H142.778V25.21L132.858 36.57Z" fill="white"/>
<path d="M151.348 41.18C149.518 40.24 148.088 38.89 147.038 37.14C145.998 35.39 145.468 33.34 145.468 30.99C145.468 28.67 145.998 26.63 147.058 24.86C148.118 23.09 149.568 21.74 151.408 20.8C153.248 19.86 155.308 19.38 157.598 19.38C159.888 19.38 161.948 19.85 163.788 20.8C165.628 21.74 167.078 23.1 168.138 24.86C169.198 26.63 169.728 28.67 169.728 30.99C169.728 33.31 169.188 35.35 168.118 37.12C167.048 38.89 165.578 40.24 163.728 41.18C161.878 42.12 159.808 42.6 157.518 42.6C155.228 42.6 153.178 42.13 151.348 41.18ZM161.008 35.16C161.968 34.19 162.448 32.8 162.448 30.99C162.448 29.18 161.978 27.8 161.048 26.82C160.118 25.85 158.968 25.36 157.598 25.36C156.208 25.36 155.048 25.84 154.128 26.8C153.208 27.76 152.748 29.15 152.748 30.99C152.748 32.8 153.198 34.19 154.108 35.16C155.008 36.13 156.148 36.62 157.518 36.62C158.878 36.61 160.048 36.13 161.008 35.16Z" fill="black"/>
<path d="M194.278 22.03C195.908 23.74 196.718 26.09 196.718 29.09V42.27H189.608V30.02C189.608 28.51 189.208 27.34 188.398 26.5C187.588 25.66 186.498 25.25 185.138 25.25C183.778 25.25 182.688 25.67 181.878 26.5C181.068 27.34 180.668 28.51 180.668 30.02V42.27H173.518V19.71H180.668V22.7C181.388 21.7 182.368 20.91 183.598 20.33C184.828 19.75 186.208 19.46 187.738 19.46C190.468 19.47 192.648 20.32 194.278 22.03Z" fill="black"/>
<path d="M110.318 27.51V28.48C110.318 28.74 110.478 28.99 110.748 29.14L116.138 32.26C116.358 32.39 116.358 32.64 116.138 32.77L110.748 35.89C110.478 36.05 110.318 36.29 110.318 36.55V37.52C110.318 37.79 110.718 37.94 110.988 37.78L119.548 32.83C119.818 32.67 119.818 32.36 119.548 32.21L110.988 27.26C110.708 27.08 110.318 27.24 110.318 27.51Z" fill="white"/>
<path d="M110.988 31.08L112.928 32.2C113.198 32.36 113.198 32.67 112.928 32.82L110.988 33.94C110.708 34.1 110.318 33.95 110.318 33.68V31.34C110.318 31.07 110.708 30.92 110.988 31.08Z" fill="white"/>
<path d="M31.9083 55.65C32.4483 55.65 32.7183 55.75 32.7183 55.95C32.7183 56.1 32.4683 56.22 31.9683 56.29C31.0983 56.43 30.6683 56.69 30.6683 57.06C30.6683 57.35 30.9183 57.58 31.4183 57.75C31.8483 57.89 32.3983 57.96 33.0683 57.96C34.3983 57.96 35.5583 57.78 36.5583 57.43C37.1783 57.21 37.4983 56.92 37.4983 56.58C37.4983 56.37 37.4083 56.18 37.2283 56.01C37.0383 55.84 36.7483 55.62 36.3483 55.35C35.7483 54.94 35.2383 54.56 34.8283 54.22C34.3683 53.84 34.1383 53.47 34.1383 53.11C34.1383 52.25 35.0683 51.45 36.9283 50.7C37.9183 50.31 38.9983 49.99 40.1883 49.75C41.1783 49.55 42.1283 49.45 43.0383 49.45C43.6283 49.45 44.1383 49.52 44.5483 49.66C45.0483 49.83 45.2983 50.06 45.2983 50.36C45.2983 50.82 44.7583 51.31 43.6683 51.85C42.6383 52.35 41.4483 52.76 40.0783 53.08C39.3983 53.24 38.8783 53.31 38.5283 53.31C38.2983 53.31 38.0883 53.27 37.9083 53.18C37.7883 53.12 37.7283 53.05 37.7283 52.98C37.7283 52.81 38.0583 52.67 38.7283 52.57C39.9483 52.37 41.0183 52.09 41.9583 51.74C43.1683 51.28 43.7683 50.88 43.7683 50.53C43.7683 50.4 43.6483 50.29 43.4083 50.21C43.2183 50.15 42.9883 50.11 42.7283 50.11C42.0383 50.11 41.1683 50.23 40.1183 50.48C38.7083 50.81 37.5983 51.23 36.7983 51.74C36.0983 52.19 35.7383 52.62 35.7383 53.04C35.7383 53.35 35.9283 53.66 36.2983 53.99C36.6083 54.25 37.0083 54.55 37.4883 54.88C37.9483 55.2 38.3483 55.49 38.6683 55.76C39.0383 56.08 39.2283 56.38 39.2283 56.66C39.2283 57.2 38.5483 57.68 37.1883 58.1C36.0283 58.45 34.7183 58.62 33.2683 58.62C31.8283 58.62 30.6983 58.44 29.8883 58.08C29.2783 57.8 28.9683 57.49 28.9683 57.13C28.9683 56.73 29.2583 56.4 29.8483 56.12C30.1983 55.95 30.6183 55.83 31.0983 55.75C31.4083 55.68 31.6883 55.65 31.9083 55.65Z" fill="black"/>
<path d="M46.1585 56.39C45.2885 56.92 44.6585 57.29 44.2385 57.49C43.7285 57.74 43.2785 57.94 42.9085 58.07C42.4885 58.21 42.0985 58.28 41.7285 58.28C41.3785 58.28 41.1085 58.2 40.9185 58.04C40.7685 57.92 40.6885 57.78 40.6885 57.63C40.6885 57.13 41.3385 56.44 42.6485 55.56C43.8385 54.76 44.7185 54.37 45.2885 54.37C45.4285 54.37 45.5685 54.4 45.6985 54.46C45.8185 54.52 45.8785 54.58 45.8785 54.65C45.8785 54.75 45.6785 54.89 45.2885 55.07C44.4485 55.45 43.7285 55.87 43.1185 56.34C42.5985 56.74 42.3385 57.01 42.3385 57.13C42.3385 57.22 42.4285 57.27 42.6085 57.27C43.2085 57.27 44.5185 56.67 46.5285 55.48C47.1785 55.09 47.5785 54.87 47.7185 54.81C47.9785 54.7 48.2485 54.64 48.5185 54.64C48.6985 54.64 48.8585 54.66 48.9885 54.71C49.0985 54.76 49.1585 54.8 49.1585 54.85C49.1585 54.91 48.9185 55.14 48.4385 55.55C47.3385 56.43 46.7885 57.03 46.7885 57.33C46.7885 57.45 46.8985 57.51 47.1085 57.51C47.4685 57.51 47.9685 57.32 48.5985 56.94C49.1985 56.58 49.7585 56.13 50.2785 55.58C50.4985 55.34 50.6985 55.03 50.8685 54.64C51.0685 54.19 51.4685 53.97 52.0785 53.97C52.4185 53.97 52.5885 54.06 52.5885 54.23C52.5885 54.83 51.8585 55.66 50.3885 56.71C48.8585 57.81 47.5685 58.36 46.5285 58.36C45.7485 58.36 45.3685 58.14 45.3685 57.71C45.3585 57.35 45.6185 56.91 46.1585 56.39Z" fill="black"/>
<path d="M56.5383 54.18C56.7083 54.18 56.8483 54.21 56.9583 54.27C57.0383 54.32 57.0783 54.37 57.0783 54.42C57.0783 54.5 56.9283 54.64 56.6383 54.83C55.5883 55.57 54.8483 56.18 54.4083 56.66C53.9383 57.15 53.5183 57.66 53.1583 58.18C52.9983 58.41 52.7483 58.52 52.4083 58.52C52.2083 58.52 52.0483 58.48 51.9283 58.41C51.8183 58.35 51.7583 58.29 51.7583 58.22C51.7583 58.08 52.0783 57.62 52.7283 56.84C53.2283 56.22 54.0483 55.55 55.1683 54.8C55.5283 54.56 55.7983 54.39 55.9783 54.31C56.1583 54.23 56.3483 54.18 56.5383 54.18ZM59.4083 51.63C59.8583 51.63 60.0883 51.74 60.0883 51.95C60.0883 52.14 59.8683 52.36 59.4283 52.59C59.0083 52.82 58.5983 52.93 58.2083 52.93C58.0183 52.93 57.8583 52.9 57.7383 52.83C57.6183 52.77 57.5583 52.7 57.5583 52.61C57.5583 52.39 57.8283 52.16 58.3583 51.91C58.7383 51.72 59.0983 51.63 59.4083 51.63Z" fill="black"/>
<path d="M59.1481 55.06C60.6881 53.54 62.1881 52.31 63.6581 51.36C64.6581 50.72 65.4781 50.25 66.1381 49.96C66.5881 49.75 66.9781 49.65 67.2981 49.65C67.4181 49.65 67.5281 49.67 67.6181 49.71C67.7581 49.76 67.8281 49.82 67.8281 49.9C67.8281 50 67.6481 50.14 67.2981 50.33C65.0781 51.49 63.0581 52.87 61.2581 54.49C62.8681 54.21 63.9881 54.07 64.6281 54.07C65.0881 54.07 65.4681 54.12 65.7781 54.23C66.0881 54.34 66.2481 54.47 66.2481 54.61C66.2481 54.68 66.1881 54.75 66.0781 54.81C65.9281 54.9 65.7281 54.94 65.4881 54.94C65.3181 54.94 64.9781 54.88 64.4781 54.75C64.3381 54.72 64.1581 54.7 63.9381 54.7C62.9281 54.7 61.7281 54.91 60.3181 55.33C60.9181 55.46 61.3481 55.63 61.5981 55.84C61.9381 56.14 62.1081 56.51 62.1081 56.94C62.1081 58.07 61.3781 59.25 59.9081 60.5C59.2781 61.03 58.6581 61.44 58.0681 61.71C57.4381 62.01 56.7881 62.16 56.1181 62.16C55.6181 62.16 55.2081 62.05 54.8981 61.83C54.6481 61.65 54.5181 61.4 54.5181 61.08C54.5181 60.4 55.0781 59.38 56.2081 58.01C56.3481 57.84 56.7481 57.42 57.4181 56.74C57.5881 56.57 57.7581 56.39 57.9181 56.2C57.8381 56.21 57.7581 56.21 57.6881 56.21C57.4181 56.21 57.2781 56.14 57.2781 56C57.2781 55.74 57.8981 55.43 59.1481 55.06ZM59.6581 55.96C59.0981 56.45 58.3481 57.23 57.4281 58.32C56.4681 59.43 55.9981 60.29 55.9981 60.9C55.9981 61.02 56.0681 61.13 56.1981 61.22C56.3381 61.31 56.5081 61.36 56.6981 61.36C57.3181 61.36 58.1381 60.88 59.1581 59.93C60.3081 58.86 60.8781 57.89 60.8781 57C60.8781 56.66 60.7281 56.4 60.4381 56.22C60.3181 56.14 60.0681 56.06 59.6581 55.96Z" fill="black"/>
<path d="M70.0784 53.87C69.4284 54.33 68.8184 54.85 68.2684 55.43C67.4684 56.25 67.0784 56.86 67.0784 57.26C67.0784 57.38 67.1284 57.46 67.2384 57.52C67.3484 57.58 67.4984 57.61 67.7184 57.61C68.2184 57.61 68.8284 57.39 69.5484 56.96C69.9984 56.69 70.4084 56.43 70.7584 56.16C70.9484 56.01 71.1584 55.93 71.3784 55.93C71.5084 55.93 71.6184 55.95 71.7084 55.99C71.7884 56.03 71.8284 56.07 71.8284 56.11C71.8284 56.28 71.3384 56.66 70.3684 57.25C69.1984 57.96 68.1384 58.31 67.1684 58.31C66.6584 58.31 66.2284 58.2 65.8884 57.99C65.6784 57.85 65.5684 57.66 65.5684 57.4C65.5684 56.84 65.9184 56.2 66.6284 55.46C66.7984 55.28 67.2684 54.83 68.0484 54.13C67.7784 54.16 67.5684 54.18 67.4284 54.18C67.2184 54.18 67.0284 54.16 66.8684 54.11C66.6484 54.05 66.5384 53.97 66.5384 53.87C66.5384 53.76 66.6884 53.66 66.9784 53.59C67.0584 53.57 67.4284 53.54 68.0984 53.5C68.3384 53.48 68.6884 53.44 69.1584 53.37C69.5084 53.08 70.0884 52.69 70.8784 52.19C71.3184 51.91 71.6284 51.74 71.7984 51.65C72.0384 51.54 72.2484 51.48 72.4284 51.48C72.5584 51.48 72.6884 51.51 72.8184 51.58C72.9384 51.64 72.9984 51.7 72.9984 51.76C72.9984 51.88 72.7184 52.12 72.1484 52.47C71.7784 52.7 71.4984 52.89 71.3184 53.03C72.4384 52.89 73.2384 52.82 73.7184 52.82C74.2684 52.82 74.5484 52.93 74.5484 53.14C74.5484 53.25 74.4484 53.32 74.2584 53.37C74.1584 53.4 73.8984 53.42 73.4684 53.44C73.2984 53.43 72.5384 53.52 71.1884 53.7C70.8084 53.77 70.4384 53.82 70.0784 53.87Z" fill="black"/>
<path d="M73.4885 57.83C73.9585 57.83 74.1985 57.97 74.1985 58.24C74.1985 58.66 73.6885 59.2 72.6785 59.88C72.2685 60.16 71.7785 60.41 71.2185 60.64C70.8585 60.79 70.5685 60.87 70.3385 60.87C70.1285 60.87 69.9585 60.83 69.8285 60.74C69.7385 60.68 69.6885 60.62 69.6885 60.55C69.6885 60.45 69.9085 60.31 70.3385 60.13C71.5685 59.59 72.2885 58.96 72.4985 58.24C72.5485 58.11 72.6885 58 72.9085 57.93C73.0985 57.86 73.2985 57.83 73.4885 57.83Z" fill="black"/>
<path d="M89.6781 50.47C89.1581 50.74 88.4581 51.18 87.5981 51.79C86.7181 52.41 86.0981 52.9 85.7081 53.24C87.8781 53.04 89.3881 52.94 90.2181 52.94C90.6181 52.94 90.9281 52.96 91.1381 53C91.3781 53.04 91.4981 53.12 91.4981 53.25C91.4981 53.53 91.1481 53.68 90.4381 53.68C90.3981 53.68 90.3181 53.68 90.1981 53.68C89.8981 53.68 89.6781 53.67 89.5381 53.67C88.5381 53.67 86.8881 53.82 84.5681 54.12C83.0981 55.27 81.8081 56.65 80.6881 58.25C80.5381 58.49 80.2981 58.62 79.9781 58.62C79.6981 58.62 79.4581 58.55 79.2681 58.41C79.1181 58.3 79.0381 58.2 79.0381 58.09C79.0381 57.97 79.3181 57.57 79.8681 56.88C80.7881 55.75 82.0881 54.53 83.7881 53.23C84.8681 52.42 86.0481 51.56 87.3381 50.65C86.9981 50.63 86.8281 50.54 86.8281 50.39C86.8281 50.16 87.3081 49.99 88.2581 49.87C89.5881 49.7 90.8781 49.57 92.1381 49.48C93.5681 49.37 94.6581 49.32 95.3981 49.32C96.5781 49.32 97.1681 49.45 97.1681 49.73C97.1681 49.87 97.0281 49.98 96.7581 50.07C96.6481 50.11 96.5181 50.13 96.3781 50.13C96.2581 50.13 96.0881 50.12 95.8681 50.11C95.5281 50.09 95.2281 50.08 94.9781 50.08C94.4381 50.08 93.5181 50.13 92.2281 50.22C91.3181 50.27 90.4681 50.36 89.6781 50.47Z" fill="black"/>
<path d="M95.0882 57.17C94.7582 57.44 94.4282 57.66 94.1082 57.84C93.4782 58.2 92.8482 58.38 92.2182 58.38C91.6782 58.38 91.2482 58.26 90.9482 58.03C90.7582 57.88 90.6582 57.7 90.6582 57.49C90.6582 56.98 91.0082 56.42 91.7182 55.8C92.5082 55.12 93.4482 54.59 94.5582 54.22C95.2782 53.98 95.9782 53.86 96.6582 53.86C97.0782 53.86 97.4282 53.92 97.7182 54.04C97.9582 54.15 98.0782 54.27 98.0782 54.4C98.0782 54.5 97.9982 54.64 97.8182 54.82C97.9682 54.92 98.0482 55 98.0482 55.08C98.0482 55.18 97.9082 55.33 97.6282 55.56C97.3382 55.78 97.0482 56.08 96.7482 56.45C96.4382 56.85 96.2782 57.16 96.2782 57.4C96.2782 57.59 96.4082 57.75 96.6582 57.88C96.7282 57.91 96.9382 57.97 97.2782 58.04C97.5282 58.1 97.6582 58.19 97.6582 58.33C97.6582 58.42 97.5882 58.49 97.4482 58.54C97.2982 58.6 97.1182 58.63 96.9182 58.63C96.3782 58.63 95.9082 58.52 95.5182 58.3C95.1982 58.12 95.0382 57.9 95.0382 57.63C95.0282 57.54 95.0482 57.38 95.0882 57.17ZM96.9682 54.91C96.8482 54.81 96.7182 54.73 96.5782 54.69C96.4382 54.64 96.2882 54.62 96.1282 54.62C95.3582 54.62 94.5382 54.93 93.6382 55.54C92.6482 56.2 92.1582 56.77 92.1582 57.24C92.1582 57.35 92.2082 57.44 92.2982 57.5C92.3982 57.56 92.5382 57.59 92.7282 57.59C93.2082 57.59 93.7782 57.36 94.4182 56.89C94.7782 56.63 95.2282 56.25 95.7582 55.75C96.1082 55.42 96.3682 55.21 96.5282 55.1C96.6182 55.05 96.7582 54.98 96.9682 54.91Z" fill="black"/>
<path d="M105.578 53.74C106.198 53.74 106.668 53.79 106.978 53.89C107.288 53.99 107.448 54.15 107.448 54.35C107.448 54.62 107.228 54.88 106.788 55.14C106.368 55.38 105.728 55.57 104.888 55.72C104.428 55.8 104.038 55.84 103.728 55.84C103.308 55.84 103.098 55.75 103.098 55.59C103.098 55.47 103.218 55.39 103.458 55.33C103.518 55.32 103.858 55.28 104.488 55.21C104.858 55.17 105.198 55.09 105.518 54.97C105.788 54.87 105.928 54.75 105.928 54.63C105.928 54.53 105.868 54.46 105.748 54.42C105.628 54.37 105.448 54.35 105.208 54.35C104.628 54.35 103.978 54.46 103.278 54.67C102.468 54.91 102.058 55.2 102.058 55.54C102.058 55.78 102.328 56.08 102.858 56.43C103.448 56.82 103.748 57.15 103.748 57.42C103.748 57.82 103.358 58.14 102.568 58.37C102.088 58.51 101.538 58.58 100.918 58.58C99.9485 58.58 99.2185 58.42 98.7185 58.11C98.3685 57.88 98.1885 57.62 98.1885 57.31C98.1885 56.95 98.3885 56.65 98.7885 56.41C99.0485 56.25 99.3185 56.17 99.6085 56.17C99.8585 56.17 99.9885 56.22 99.9885 56.31C99.9885 56.35 99.9385 56.4 99.8485 56.48C99.6185 56.68 99.4985 56.91 99.4985 57.18C99.4985 57.41 99.6785 57.6 100.028 57.75C100.338 57.89 100.698 57.96 101.098 57.96C101.488 57.96 101.798 57.9 102.018 57.78C102.198 57.68 102.288 57.55 102.288 57.39C102.288 57.2 102.048 56.95 101.568 56.64C100.908 56.22 100.568 55.83 100.568 55.49C100.568 55.03 101.118 54.63 102.218 54.27C103.258 53.91 104.388 53.74 105.578 53.74Z" fill="black"/>
<path d="M112.038 53.87C111.388 54.33 110.778 54.85 110.228 55.43C109.428 56.25 109.038 56.86 109.038 57.26C109.038 57.38 109.088 57.46 109.198 57.52C109.308 57.58 109.458 57.61 109.678 57.61C110.178 57.61 110.788 57.39 111.508 56.96C111.958 56.69 112.358 56.43 112.718 56.16C112.908 56.01 113.118 55.93 113.338 55.93C113.468 55.93 113.578 55.95 113.668 55.99C113.748 56.03 113.788 56.07 113.788 56.11C113.788 56.28 113.298 56.66 112.318 57.25C111.148 57.96 110.088 58.31 109.118 58.31C108.608 58.31 108.178 58.2 107.838 57.99C107.628 57.85 107.518 57.66 107.518 57.4C107.518 56.84 107.868 56.2 108.578 55.46C108.748 55.28 109.218 54.83 109.998 54.13C109.728 54.16 109.518 54.18 109.378 54.18C109.168 54.18 108.978 54.16 108.818 54.11C108.598 54.05 108.488 53.97 108.488 53.87C108.488 53.76 108.638 53.66 108.928 53.59C109.008 53.57 109.378 53.54 110.048 53.5C110.288 53.48 110.638 53.44 111.108 53.37C111.458 53.08 112.038 52.69 112.828 52.19C113.268 51.91 113.578 51.74 113.748 51.65C113.988 51.54 114.198 51.48 114.378 51.48C114.508 51.48 114.638 51.51 114.768 51.58C114.888 51.64 114.948 51.7 114.948 51.76C114.948 51.88 114.668 52.12 114.098 52.47C113.728 52.7 113.448 52.89 113.268 53.03C114.388 52.89 115.188 52.82 115.668 52.82C116.218 52.82 116.498 52.93 116.498 53.14C116.498 53.25 116.398 53.32 116.208 53.37C116.108 53.4 115.848 53.42 115.418 53.44C115.248 53.43 114.488 53.52 113.138 53.7C112.758 53.77 112.398 53.82 112.038 53.87Z" fill="black"/>
<path d="M131.808 53.67C131.978 54.34 132.118 54.81 132.228 55.1C132.348 55.42 132.598 55.95 132.988 56.7C134.028 56 134.648 55.39 134.858 54.87C134.598 54.86 134.428 54.85 134.348 54.85C133.798 54.84 133.438 54.81 133.278 54.76C133.078 54.7 132.978 54.6 132.978 54.48C132.978 54.37 133.048 54.28 133.178 54.21C133.338 54.13 133.548 54.09 133.808 54.09C133.898 54.09 134.148 54.1 134.548 54.11C134.628 54.11 134.708 54.12 134.778 54.12C135.498 54.12 136.678 54.06 138.308 53.95C138.838 53.91 139.368 53.89 139.888 53.89C140.848 53.89 141.318 54.04 141.318 54.34C141.318 54.54 141.138 54.64 140.778 54.64C140.608 54.64 140.328 54.62 139.928 54.58C139.728 54.56 139.498 54.55 139.248 54.55C138.748 54.55 137.698 54.62 136.108 54.77C135.938 55.16 135.618 55.61 135.138 56.11C134.608 56.66 134.058 57.07 133.508 57.36C133.808 57.6 134.068 57.78 134.278 57.88C134.708 58.1 135.278 58.21 135.988 58.21C136.328 58.21 136.678 58.19 137.048 58.15C137.448 58.11 137.758 58.09 137.988 58.09C138.358 58.09 138.548 58.17 138.548 58.34C138.548 58.49 138.318 58.62 137.858 58.73C137.178 58.89 136.428 58.96 135.608 58.96C134.278 58.96 133.178 58.64 132.308 58C130.968 58.58 129.678 58.87 128.428 58.87C127.008 58.87 125.878 58.6 125.048 58.07C124.478 57.71 124.188 57.27 124.188 56.75C124.188 56.1 124.608 55.5 125.458 54.95C126.338 54.39 127.908 53.89 130.178 53.44C130.098 53.14 130.058 52.88 130.058 52.66C130.058 52.16 130.218 51.72 130.528 51.34C130.818 50.98 131.318 50.67 132.038 50.42C132.688 50.19 133.398 50.08 134.148 50.08C134.768 50.08 135.288 50.18 135.698 50.38C136.138 50.59 136.358 50.84 136.358 51.14C136.358 51.54 136.048 51.95 135.438 52.37C134.978 52.68 134.158 53 132.978 53.33C132.828 53.39 132.438 53.5 131.808 53.67ZM130.268 54.02C129.368 54.21 128.598 54.44 127.978 54.69C126.588 55.26 125.898 55.87 125.898 56.54C125.898 56.94 126.138 57.29 126.608 57.57C127.108 57.88 127.838 58.03 128.778 58.03C129.758 58.03 130.748 57.8 131.748 57.33C131.378 56.92 131.048 56.36 130.768 55.66C130.568 55.02 130.408 54.47 130.268 54.02ZM131.688 53.14C132.488 52.93 133.128 52.72 133.608 52.51C134.378 52.16 134.768 51.81 134.768 51.48C134.768 51.31 134.668 51.17 134.468 51.05C134.278 50.93 134.038 50.88 133.748 50.88C133.138 50.88 132.598 51.04 132.148 51.37C131.798 51.63 131.618 52.04 131.618 52.62C131.608 52.71 131.628 52.89 131.688 53.14Z" fill="black"/>
<path d="M156.228 53.21L156.828 53.16C159.048 52.97 160.598 52.87 161.478 52.87C162.108 52.87 162.428 52.99 162.428 53.22C162.428 53.37 162.298 53.47 162.048 53.52C161.878 53.56 161.588 53.58 161.168 53.59C158.558 53.66 156.578 53.8 155.218 54.01C154.688 54.37 153.908 55.05 152.878 56.04C152.288 56.62 151.818 57.15 151.488 57.64C151.718 57.6 151.948 57.57 152.168 57.53C153.658 57.3 154.758 57.15 155.458 57.08C156.398 57 157.278 56.96 158.098 56.96C158.638 56.96 159.048 56.99 159.308 57.05C159.538 57.1 159.658 57.2 159.658 57.34C159.658 57.48 159.518 57.58 159.238 57.62C159.108 57.64 158.798 57.65 158.308 57.65C155.638 57.71 153.268 58.01 151.188 58.54C150.918 58.61 150.688 58.64 150.498 58.64C150.218 58.64 149.968 58.57 149.738 58.44C149.548 58.33 149.448 58.22 149.448 58.1C149.448 57.98 149.768 57.56 150.398 56.83C151.358 55.72 152.658 54.51 154.308 53.19C154.798 52.79 155.738 52.12 157.118 51.17C157.428 50.95 157.728 50.73 158.028 50.52C157.628 50.47 157.428 50.35 157.428 50.15C157.428 50 157.588 49.9 157.908 49.83C158.428 49.72 159.438 49.61 160.928 49.51C163.148 49.35 165.038 49.28 166.588 49.28C167.468 49.28 167.898 49.39 167.898 49.6C167.898 49.75 167.748 49.87 167.448 49.97C167.298 50.02 167.058 50.05 166.728 50.05C166.708 50.05 166.588 50.05 166.378 50.04C166.228 50.04 166.058 50.04 165.878 50.04C165.158 50.04 164.108 50.07 162.738 50.14C161.548 50.2 160.528 50.29 159.678 50.4C159.778 50.47 159.828 50.52 159.828 50.57C159.828 50.65 159.588 50.83 159.118 51.11L158.398 51.62C157.348 52.34 156.628 52.86 156.228 53.21Z" fill="black"/>
<path d="M165.518 57.17C165.188 57.44 164.858 57.66 164.538 57.84C163.908 58.2 163.278 58.38 162.648 58.38C162.108 58.38 161.678 58.26 161.378 58.03C161.188 57.88 161.088 57.7 161.088 57.49C161.088 56.98 161.438 56.42 162.148 55.8C162.928 55.12 163.878 54.59 164.988 54.22C165.708 53.98 166.408 53.86 167.088 53.86C167.508 53.86 167.868 53.92 168.148 54.04C168.388 54.15 168.508 54.27 168.508 54.4C168.508 54.5 168.428 54.64 168.248 54.82C168.398 54.92 168.478 55 168.478 55.08C168.478 55.18 168.338 55.33 168.058 55.56C167.768 55.78 167.478 56.08 167.178 56.45C166.868 56.85 166.708 57.16 166.708 57.4C166.708 57.59 166.838 57.75 167.088 57.88C167.158 57.91 167.368 57.97 167.708 58.04C167.958 58.1 168.088 58.19 168.088 58.33C168.088 58.42 168.018 58.49 167.878 58.54C167.728 58.6 167.548 58.63 167.348 58.63C166.808 58.63 166.338 58.52 165.948 58.3C165.628 58.12 165.468 57.9 165.468 57.63C165.458 57.54 165.478 57.38 165.518 57.17ZM167.408 54.91C167.288 54.81 167.158 54.73 167.018 54.69C166.878 54.64 166.728 54.62 166.568 54.62C165.808 54.62 164.978 54.93 164.078 55.54C163.088 56.21 162.598 56.79 162.598 57.25C162.598 57.36 162.648 57.45 162.738 57.51C162.828 57.57 162.978 57.6 163.168 57.6C163.648 57.6 164.218 57.37 164.858 56.9C165.218 56.64 165.668 56.26 166.198 55.76C166.548 55.43 166.808 55.22 166.968 55.11C167.048 55.05 167.198 54.98 167.408 54.91Z" fill="black"/>
<path d="M176.008 53.74C176.628 53.74 177.098 53.79 177.408 53.89C177.718 53.99 177.878 54.15 177.878 54.35C177.878 54.62 177.658 54.88 177.218 55.14C176.798 55.38 176.158 55.57 175.318 55.72C174.858 55.8 174.468 55.84 174.158 55.84C173.738 55.84 173.528 55.75 173.528 55.59C173.528 55.47 173.648 55.39 173.888 55.33C173.948 55.32 174.288 55.28 174.918 55.21C175.288 55.17 175.628 55.09 175.948 54.97C176.218 54.87 176.358 54.75 176.358 54.63C176.358 54.53 176.298 54.46 176.178 54.42C176.058 54.37 175.878 54.35 175.638 54.35C175.058 54.35 174.408 54.46 173.708 54.67C172.888 54.91 172.488 55.2 172.488 55.54C172.488 55.78 172.758 56.08 173.288 56.43C173.878 56.82 174.178 57.15 174.178 57.42C174.178 57.82 173.788 58.14 172.998 58.37C172.518 58.51 171.968 58.58 171.348 58.58C170.378 58.58 169.648 58.42 169.148 58.11C168.798 57.88 168.618 57.62 168.618 57.31C168.618 56.95 168.818 56.65 169.218 56.41C169.478 56.25 169.748 56.17 170.038 56.17C170.288 56.17 170.418 56.22 170.418 56.31C170.418 56.35 170.368 56.4 170.278 56.48C170.048 56.68 169.928 56.91 169.928 57.18C169.928 57.41 170.108 57.6 170.458 57.75C170.768 57.89 171.128 57.96 171.528 57.96C171.918 57.96 172.228 57.9 172.448 57.78C172.628 57.68 172.718 57.55 172.718 57.39C172.718 57.2 172.478 56.95 171.998 56.64C171.338 56.22 170.998 55.83 170.998 55.49C170.998 55.03 171.548 54.63 172.648 54.27C173.698 53.91 174.818 53.74 176.008 53.74Z" fill="black"/>
<path d="M182.368 56.38C181.468 56.86 180.758 57.22 180.228 57.45C179.168 57.91 178.288 58.14 177.588 58.14C177.248 58.14 176.978 58.08 176.768 57.97C176.618 57.88 176.538 57.76 176.538 57.63C176.538 57.13 177.178 56.47 178.468 55.65C179.778 54.81 180.718 54.4 181.308 54.4C181.468 54.4 181.608 54.43 181.728 54.5C181.838 54.55 181.898 54.61 181.898 54.68C181.898 54.78 181.838 54.87 181.728 54.94C181.608 55.02 181.278 55.18 180.738 55.45C180.168 55.72 179.638 56.01 179.158 56.33C178.608 56.69 178.328 56.95 178.328 57.12C178.328 57.22 178.428 57.26 178.628 57.26C179.028 57.26 179.788 57.01 180.888 56.51C181.578 56.19 182.128 55.93 182.518 55.71C182.598 55.66 182.948 55.45 183.578 55.06C184.138 54.72 184.488 54.51 184.618 54.45C184.918 54.29 185.198 54.21 185.458 54.21C185.618 54.21 185.768 54.24 185.898 54.31C186.018 54.37 186.078 54.44 186.078 54.52C186.078 54.65 185.878 54.88 185.478 55.19C184.998 55.57 184.548 55.93 184.148 56.26C183.518 56.77 183.028 57.23 182.688 57.64C183.328 57.47 183.918 57.26 184.458 57.01C185.368 56.6 185.918 56.29 186.118 56.09C186.308 55.91 186.508 55.81 186.708 55.81C186.988 55.81 187.128 55.87 187.128 56C187.128 56.24 186.678 56.61 185.768 57.09C184.678 57.67 183.348 58.16 181.748 58.56C180.908 59.49 180.098 60.26 179.348 60.87C177.938 62 176.488 62.56 174.988 62.56C174.378 62.56 173.878 62.45 173.508 62.24C173.218 62.07 173.068 61.87 173.068 61.61C173.068 60.89 174.168 60.16 176.368 59.41C177.008 59.19 177.968 58.91 179.238 58.58C179.748 58.45 180.158 58.34 180.448 58.26C180.628 58.05 180.908 57.77 181.278 57.42C181.688 57.02 182.048 56.68 182.368 56.38ZM179.588 59.09C178.518 59.34 177.428 59.69 176.318 60.15C175.188 60.62 174.628 61.06 174.628 61.47C174.628 61.56 174.688 61.63 174.798 61.69C174.948 61.77 175.148 61.81 175.388 61.81C176.148 61.81 176.978 61.45 177.898 60.73C178.048 60.61 178.458 60.21 179.138 59.54C179.258 59.4 179.418 59.25 179.588 59.09Z" fill="black"/>
</svg>
