<svg width="60" height="30" viewBox="0 0 60 30" fill="none" xmlns="http://www.w3.org/2000/svg">
<g clip-path="url(#clip0)">
<path fill-rule="evenodd" clip-rule="evenodd" d="M17.0671 5.64583H21.674C23.1392 5.64583 24.3381 6.84128 24.3381 8.30268V15.9411C24.3381 17.4022 23.1392 18.5979 21.674 18.5979H17.0671C15.6019 18.5979 14.4028 17.4022 14.4028 15.9411V8.30268C14.4028 6.84128 15.6019 5.64583 17.0671 5.64583Z" fill="white"/>
<path fill-rule="evenodd" clip-rule="evenodd" d="M17.0673 5.64573H21.6742C23.1394 5.64573 24.3383 6.84149 24.3383 8.30264V15.9411C24.3383 17.4022 23.1394 18.5979 21.6742 18.5979H17.0673C15.602 18.5979 14.403 17.4022 14.403 15.9411V8.30264C14.403 6.84149 15.602 5.64573 17.0673 5.64573ZM23.3393 30H15.4022C14.2421 30 13.293 29.0533 13.293 27.8965V4.70488C13.293 3.54814 14.2421 2.60159 15.4022 2.60159H23.3393C23.4334 2.60159 23.5259 2.60784 23.6169 2.61999V0.913317C23.6169 0.411051 24.029 7.62939e-05 24.5327 7.62939e-05C25.0363 7.62939e-05 25.4484 0.411051 25.4484 0.913317V3.79164C25.4484 3.91918 25.4217 4.04102 25.3737 4.15163C25.4224 4.32814 25.4484 4.51366 25.4484 4.70488V27.8965C25.4484 29.0533 24.4994 30 23.3393 30Z" fill="#D9E4D3"/>
<path fill-rule="evenodd" clip-rule="evenodd" d="M30.0346 7.39226C31.285 7.21349 32.2448 7.56008 32.3102 9.52333C32.2689 11.2761 31.3347 11.7196 30.0346 11.6266V7.39226ZM27.314 6.13208L32.3791 6.11255C34.2258 6.34647 35.0791 7.72469 35.0016 9.72997C34.8609 11.751 33.7119 12.7389 31.7931 12.9121L29.9544 12.8756L30.006 18.4199H27.314V6.13208Z" fill="#36B649"/>
<path fill-rule="evenodd" clip-rule="evenodd" d="M39.7061 5.97952L42.9128 5.96491L42.8889 7.33741L40.377 7.32619C38.9277 7.59466 39.2523 9.13649 39.1819 10.2506L42.5612 10.1875L42.5729 11.8722L39.299 11.8375L39.283 15.9171C39.4118 16.9747 39.9699 17.5067 40.9123 17.5683L42.7111 17.5486L43.2594 17.5605L43.2425 18.8341L42.6806 18.8555L39.2621 18.8192C38.084 18.7795 37.1328 18.1968 36.6952 16.3855L36.6113 8.47085C36.6594 6.8482 37.7339 6.05246 39.7061 5.97952Z" fill="#36B649"/>
<path fill-rule="evenodd" clip-rule="evenodd" d="M44.0905 9.453C43.8884 6.80178 45.3698 6.20293 47.1712 5.99361C49.2798 5.86906 50.6039 6.74591 50.8621 8.98305L48.373 8.97632C48.2154 7.84786 47.3351 7.41419 46.5296 7.9512C45.3812 9.352 48.9646 11.8172 50.0388 12.7314C51.8959 14.1961 51.5813 18.2557 48.721 19.0084L46.977 19.0702C45.2052 19.1118 44.1507 17.996 43.8457 15.9272L46.3536 15.883C46.4902 16.7665 46.8681 17.3157 47.6707 17.2766C48.9194 17.0401 49.2629 15.9438 48.3746 14.5448C46.5156 12.9704 44.314 11.4935 44.0905 9.453Z" fill="#36B649"/>
<path fill-rule="evenodd" clip-rule="evenodd" d="M0 5.57865H2.63603L2.66374 6.39506C4.25665 5.70862 5.45786 5.22358 6.71613 6.35357C8.96591 5.29411 10.6673 5.4148 11.5109 7.3811L11.6283 18.4199H8.97024V7.89046C8.77344 6.98909 8.05775 6.83496 7.19408 6.89424V18.4199H4.47431V7.89046C4.27754 6.98909 3.56182 6.83496 2.69822 6.89424V18.4199H0V5.57865Z" fill="#36B649"/>
<path fill-rule="evenodd" clip-rule="evenodd" d="M55.0742 8.36458C55.1644 7.64078 55.4003 7.34936 56.198 7.27136C57.0071 7.29221 57.2949 7.75773 57.3498 8.47521V10.4402H55.0742V8.36458ZM52.3403 18.7427H55.0742V11.9623H57.3498V18.7427H60.0001V9.05644C59.9471 7.08786 58.4298 5.85423 56.2812 5.84605C53.83 5.8245 52.4324 6.98372 52.3403 8.94569V18.7427Z" fill="#36B649"/>
<path fill-rule="evenodd" clip-rule="evenodd" d="M16.5257 10.8138C16.9815 11.877 17.6019 12.3657 18.3536 12.3955C17.1814 13.2687 15.9132 13.7995 14.5912 14.1384C13.761 14.0854 12.967 13.8747 12.1963 13.6642C14.1437 13.2809 15.5958 12.341 16.5257 10.8138Z" fill="#7F1D1E"/>
<path fill-rule="evenodd" clip-rule="evenodd" d="M21.6321 8.07403L27.1272 10.8416C24.3286 14.5134 19.6094 14.61 14.583 14.135C17.9433 13.3093 20.2699 11.2615 21.6321 8.07403Z" fill="#EC1D27"/>
</g>
<defs>
<clipPath id="clip0">
<rect width="60" height="30" fill="white"/>
</clipPath>
</defs>
</svg>
