<svg width="22" height="21" viewBox="0 0 22 21" fill="none" xmlns="http://www.w3.org/2000/svg">
    <path d="M16.5458 15.0145C16.1537 14.6255 15.5206 14.628 15.1316 15.0201C14.7426 15.4122 14.7451 16.0453 15.1372 16.4343L16.5458 15.0145ZM19.4468 20.7099C19.8389 21.0989 20.4721 21.0964 20.861 20.7043C21.25 20.3122 21.2475 19.6791 20.8554 19.2901L19.4468 20.7099ZM9.63416 19.1321C14.9475 19.1321 19.2683 14.8566 19.2683 9.56603H17.2683C17.2683 13.7372 13.8579 17.1321 9.63416 17.1321V19.1321ZM19.2683 9.56603C19.2683 4.27542 14.9475 0 9.63416 0V2C13.8579 2 17.2683 5.3949 17.2683 9.56603H19.2683ZM9.63416 0C4.32086 0 0 4.27542 0 9.56603H2C2 5.3949 5.41047 2 9.63416 2V0ZM0 9.56603C0 14.8566 4.32086 19.1321 9.63416 19.1321V17.1321C5.41047 17.1321 2 13.7372 2 9.56603H0ZM15.1372 16.4343L19.4468 20.7099L20.8554 19.2901L16.5458 15.0145L15.1372 16.4343Z" fill="black"/>
</svg>
