<?xml version="1.0" encoding="utf-8"?>
<!-- Generator: Adobe Illustrator 24.1.2, SVG Export Plug-In . SVG Version: 6.00 Build 0)  -->
<svg version="1.1" id="Layer_3" xmlns="http://www.w3.org/2000/svg" xmlns:xlink="http://www.w3.org/1999/xlink" x="0px" y="0px"
	 viewBox="0 0 1707.7 588.7" style="enable-background:new 0 0 1707.7 588.7;" xml:space="preserve">
<style type="text/css">
	.st0{opacity:0.5;enable-background:new    ;}
	.st1{fill:#FFFFFF;}
	.st2{fill:#333333;}
	.st3{fill:#B92328;}
	.st4{opacity:0.96;fill:#B92328;enable-background:new    ;}
	.st5{font-family:'Roboto-LightItalic';}
	.st6{font-size:136.59px;}
	.st7{letter-spacing:-2.5;}
</style>
<path class="st0" d="M-3,690"/>
<path class="st1" d="M119,135C53.2,135,0,188.3,0,254s53.3,119,119,119s119-53.3,119-119c0.1-65.7-53.1-118.9-118.8-119
	C119.1,135,119,135,119,135z M119,313.5c-32.9,0-59.5-26.6-59.5-59.5s26.6-59.5,59.5-59.5c32.8,0,59.5,26.6,59.5,59.5
	C178.5,286.8,151.8,313.4,119,313.5C119,313.5,119,313.5,119,313.5L119,313.5z"/>
<path class="st1" d="M489.6,242.7c-6.2-65.4-64.3-113.4-129.7-107.2c-65.4,6.2-113.4,64.3-107.2,129.7s64.3,113.4,129.7,107.2
	c56.8-5.4,101.9-50.4,107.2-107.2c0.4-3.7,0.5-7.4,0.5-11.2S490,246.4,489.6,242.7z M371.2,313.5c-32.9,0-59.5-26.6-59.5-59.5
	c0-32.9,26.6-59.5,59.5-59.5s59.5,26.6,59.5,59.5c0,2.7-0.2,5.3-0.5,8C426.1,291.4,400.9,313.4,371.2,313.5z"/>
<path class="st2" d="M1033.8,135.2c-7.2,0-13.1-2-13.1-4.4c0-70.8-15.4-114.7-92.2-114.7c-77.9,0-92.2,38.6-92.2,114.7
	c0,2.4-5.9,4.4-13.1,4.4s-13.1-2-13.1-4.4c0-82,18.3-123.6,118.3-123.6c109.3,0,118.3,58.5,118.3,123.6
	C1046.8,133.2,1041,135.2,1033.8,135.2z"/>
<path class="st1" d="M1234.8,127.1c3.2-16.8-8.5-32.6-24.2-32.6h-564c-15.7,0-27.5,15.8-24.2,32.6l52.1,271.5
	c2.4,12.5,12.5,21.5,24.2,21.5h459.8c11.7,0,21.8-9,24.2-21.5L1234.8,127.1z M843.1,110c0,5.6-8.9,10.1-19.8,10.1
	s-19.8-4.5-19.8-10.1s8.9-10.1,19.8-10.1S843.1,104.4,843.1,110z M1053.6,110c0,5.6-8.9,10.1-19.8,10.1c-11,0-19.8-4.5-19.8-10.1
	s8.9-10.1,19.8-10.1C1044.7,99.9,1053.6,104.4,1053.6,110z"/>
<path class="st3" d="M1035.8,120.6c-7.2,0-13.1-1.9-13.1-4.2c0-66.8-15.4-108.1-92.2-108.1c-77.9,0-92.2,36.4-92.2,108.1
	c0,2.3-5.9,4.2-13.1,4.2s-13.1-1.9-13.1-4.2C812.2,39.2,830.5,0,930.6,0c109.3,0,118.3,55.1,118.3,116.5
	C1048.9,118.8,1043,120.6,1035.8,120.6z"/>
<path class="st1" d="M59.5,256.8v136.8c0,32.8-26.6,59.5-59.5,59.5V253.9c0-19.2,4.6-38,13.5-55C40.4,205.2,59.5,229.2,59.5,256.8z"
	/>
<path class="st1" d="M489.6,242.7V382c-15.5,0.1-30.5-5.4-42.1-15.7c-4.2-3.8-7.9-8.2-10.7-13.2c-4.4-7.5-6.7-16-6.7-24.7V205.3
	c0-16,7.8-30.4,20.2-40.2C472.8,185.1,486.8,212.8,489.6,242.7z"/>
<path class="st1" d="M1334.7,135c-65.7,0-119,53.3-119,119s53.3,119,119,119s119-53.3,119-119S1400.4,135,1334.7,135z M1334.7,313.5
	c-32.9,0-59.5-26.6-59.5-59.5c0-32.9,26.6-59.5,59.5-59.5c32.8,0,59.5,26.6,59.5,59.5C1394.2,286.8,1367.6,313.4,1334.7,313.5
	C1334.7,313.5,1334.7,313.5,1334.7,313.5L1334.7,313.5z"/>
<path class="st1" d="M1648.1,258.1c0.1-1.4,0.1-2.7,0.1-4.1s-0.1-2.8-0.1-4.1c-0.2-2.1-0.4-4.3-0.8-6.4l0,0
	c-5.9-32.3-36.9-53.7-69.2-47.8c-30.4,5.6-51.5,33.5-48.5,64.3v68.5c0,8.6-2.3,17.1-6.6,24.6c-30.7-20.4-50.3-53.9-52.8-90.7
	c-0.2-2.8-0.3-5.6-0.3-8.4s0.1-5.6,0.3-8.4c4.7-65.6,61.6-114.9,127.2-110.2c44.1,3.2,82.9,30.5,100.6,71.1l0,0v0.1
	c1.3,3.1,2.5,6.2,3.6,9.4v0.1v0.1c1.2,3.7,2.3,7.5,3.2,11.3v0l0,0c0.8,3.3,1.4,6.7,1.8,10.1c0.5,3.5,0.8,7.1,1,10.7
	c0.1,1.9,0.1,3.8,0.1,5.8s0,3.9-0.1,5.8c-0.2,3.6-0.5,7.2-1,10.7c-4.9,35-25,65.9-55,84.6L1648.1,258.1z"/>
<path class="st3" d="M887.5,242.7c-6.2-65.4-64.3-113.4-129.7-107.2c-65.4,6.2-113.4,64.3-107.2,129.7s64.3,113.4,129.7,107.2
	c56.8-5.4,101.9-50.4,107.2-107.2c0.3-3.7,0.5-7.4,0.5-11.2S887.9,246.4,887.5,242.7z M769.1,313.5c-32.9,0-59.5-26.7-59.5-59.5
	s26.7-59.5,59.5-59.5s59.5,26.7,59.5,59.5c0,2.6-0.2,5.3-0.5,7.9C824.1,291.4,798.9,313.5,769.1,313.5z"/>
<path class="st3" d="M887.5,242.7V382c-15.5,0.1-30.5-5.4-42.1-15.7c-4.2-3.8-7.9-8.2-10.7-13.1c-4.4-7.5-6.7-16-6.7-24.7V205.3
	c0-16,7.8-30.4,20.2-40.2C870.7,185.1,884.7,212.8,887.5,242.7z"/>
<path class="st1" d="M1529.5,205.3v123.1c0,8.6-2.3,17.1-6.6,24.6c-2.9,5-6.5,9.4-10.8,13.3c-11.6,10.2-26.6,15.8-42.1,15.7V245.6
	c2.1-30.9,16.3-59.7,39.4-80.3C1521.8,175.1,1529.5,189.4,1529.5,205.3z"/>
<path class="st1" d="M1701.5,216L1701.5,216l3.2,11.4v0l0,0l2.8,20.7V382c-16.4,0-31.3-4.6-42.1-12c-5.6-3.7-10.3-8.7-13.6-14.6
	l-0.3-0.5c-2.3-4.3-3.5-9-3.5-13.9v-94.1c0-1.2,0.1-2.3,0.2-3.5l0,0c2.3-18.7,23-33.9,49.6-36.9L1701.5,216z"/>
<path class="st3" d="M1140.6,197.5c9-15.2,4.1-34.8-11.1-43.9c-3.9-2.3-8.1-3.8-12.6-4.3h-7.4L939,148.9h-0.3
	c-0.1,31.1,25.1,56.3,56.1,56.4l68.4,0.2l29.2,0.1l31.9,0.1h0.1c3.4,0,6.9-0.3,10.2-0.9c0.1,0,0.2,0,0.4-0.1L1140.6,197.5z"/>
<path class="st3" d="M1004.4,372.6l1-1.2c-17.3,3.5-34.2-7.7-37.7-25.1c-1.5-7.4-0.3-15.2,3.4-21.8c8.8-5.3,18.8-8.2,29.1-8.2
	l20.4,0l27.5-0.1l81.6-0.2h0.2c31,0,56.2,25.1,56.3,56.1L1004.4,372.6z"/>
<path class="st3" d="M1145.1,181.1c0,5.8-1.5,11.4-4.5,16.4l-4.7,6.1l0,0l-0.8,1.1L1048,317.2l-17,22l-25.7,33.2
	c-17.3,3.5-34.2-7.7-37.7-25.1c-1.5-7.4-0.3-15.2,3.4-21.8c-0.4,0.2-0.8,0.5-1.1,0.7l93.4-120.7l17.9-23.1l4.3-5.5
	c8.2-10.7,18-20,29.2-27.5l0.3-0.2c0.7,0,1.4,0.1,2.1,0.2C1133,151.3,1145.1,164.9,1145.1,181.1z"/>
<path class="st3" d="M1030,341c-0.5,17.7-15.2,31.6-32.9,31.1c-17.7-0.5-31.6-15.2-31.1-32.9c0.5-17.7,15.2-31.6,32.9-31.1
	c17,0.5,30.6,14.1,31.1,31.1C1030,339.8,1030,340.4,1030,341z"/>
<path class="st4" d="M1145.1,181.1c0,5.8-1.5,11.4-4.5,16.4c-1.3,2.2-2.9,4.2-4.7,6.1c-0.4,0.4-0.8,0.8-1.2,1.1
	c-13,11.9-33.3,11.1-45.2-2c-5.1-5.6-8.1-12.8-8.4-20.3c0-0.4,0-0.9,0-1.3c0-16.3,12.2-29.9,28.4-31.8c1.2-0.1,2.4-0.2,3.6-0.2
	c0.6,0,1.2,0,1.7,0c0.6,0,1.4,0.1,2.1,0.2C1133,151.3,1145.1,164.9,1145.1,181.1z"/>
<path class="st1" d="M596.2,137.7v243.8c-2.5,0-5.1-0.1-7.6-0.5l0,0c-12.9-1.5-25-7.2-34.5-16.2c-11.1-10.4-17.4-24.9-17.4-40.1
	V194.4c0-0.4,0-0.7,0-1C537.3,162.5,563.7,137.7,596.2,137.7z"/>
<path d="M596.1,349c0-0.6,0-1.1,0.1-1.7v3.3C596.1,350.1,596.1,349.6,596.1,349z"/>
<path class="st0" d="M639,366.4c-1,1-2.1,2-3.3,2.9C636.8,368.4,637.9,367.4,639,366.4z"/>
<path class="st1" d="M630.1,237.7H630l-127.6,0.5l0,0c-0.1-24.7,13.1-44.8,29.5-44.8l68.3-0.3C616.6,193.1,630,213,630.1,237.7z"/>
<path class="st1" d="M633.1,351.6L633.1,351.6L633.1,351.6l-81.6-44.8l0,0c-11.9,21.6-13,43.8-2.6,49.6l43.6,24
	C603,386.1,621.2,373.3,633.1,351.6z"/>
<path class="st3" d="M908.4,227.7v8.8c0,2.4,1.1,4.6,3,6l37.7,28.2c1.3,0.9,1.5,2.7,0.6,4c-0.2,0.2-0.4,0.4-0.6,0.6l-37.7,28.2
	c-1.9,1.4-3,3.6-3,6v8.8c0.1,1.7,1.4,3,3.1,2.9c0.6,0,1.1-0.2,1.6-0.5l59.8-44.7c1.6-1.2,1.9-3.4,0.7-4.9c-0.2-0.3-0.4-0.5-0.7-0.7
	l-59.8-44.7c-1.3-1-3.1-0.7-4.1,0.6C908.6,226.4,908.4,227,908.4,227.7z"/>
<path class="st3" d="M913.1,259.9l13.5,10.1c1.6,1.2,1.9,3.4,0.7,4.9c-0.2,0.3-0.4,0.5-0.7,0.7l-13.5,10.1c-1.4,0.9-3.2,0.6-4.2-0.8
	c-0.3-0.5-0.5-1-0.5-1.6v-21.2c0-1.6,1.3-2.9,2.9-2.9C912,259.3,912.6,259.5,913.1,259.9z"/>
<text transform="matrix(1.18 0 0 1 251.6704 551.7296)" class="st1 st5 st6">Swift, </text>
<text transform="matrix(1.18 0 0 1 672.6357 551.7296)" class="st1 st5 st6 st7">F</text>
<text transform="matrix(1.18 0 0 1 758.6572 551.7296)" class="st1 st5 st6">ast &amp; Easy</text>
</svg>
